<?xml version="1.0" encoding="UTF-8" standalone="no"?>
<!DOCTYPE svg PUBLIC "-//W3C//DTD SVG 1.1//EN"
 "http://www.w3.org/Graphics/SVG/1.1/DTD/svg11.dtd">
<!-- Generated by graphviz version 2.44.1 (20200629.0846)
 -->
<!-- Title: g Pages: 1 -->
<svg width="238pt" height="92pt"
 viewBox="0.00 0.00 238.00 92.00" xmlns="http://www.w3.org/2000/svg" xmlns:xlink="http://www.w3.org/1999/xlink">
<g id="graph0" class="graph" transform="scale(1 1) rotate(0) translate(4 88)">
<title>g</title>
<polygon fill="white" stroke="transparent" points="-4,4 -4,-88 234,-88 234,4 -4,4"/>
<!-- node0 -->
<g id="node1" class="node">
<title>node0</title>
<polygon fill="none" stroke="black" points="62,-60.5 62,-83.5 125,-83.5 125,-60.5 62,-60.5"/>
<text text-anchor="middle" x="72" y="-68.3" font-family="Times,serif" font-size="14.00"> </text>
<polyline fill="none" stroke="black" points="82,-60.5 82,-83.5 "/>
<text text-anchor="middle" x="93.5" y="-68.3" font-family="Times,serif" font-size="14.00">2</text>
<polyline fill="none" stroke="black" points="105,-60.5 105,-83.5 "/>
<text text-anchor="middle" x="115" y="-68.3" font-family="Times,serif" font-size="14.00"> </text>
</g>
<!-- node1 -->
<g id="node2" class="node">
<title>node1</title>
<polygon fill="none" stroke="black" points="0,-0.5 0,-23.5 63,-23.5 63,-0.5 0,-0.5"/>
<text text-anchor="middle" x="10" y="-8.3" font-family="Times,serif" font-size="14.00"> </text>
<polyline fill="none" stroke="black" points="20,-0.5 20,-23.5 "/>
<text text-anchor="middle" x="31.5" y="-8.3" font-family="Times,serif" font-size="14.00">1</text>
<polyline fill="none" stroke="black" points="43,-0.5 43,-23.5 "/>
<text text-anchor="middle" x="53" y="-8.3" font-family="Times,serif" font-size="14.00"> </text>
</g>
<!-- node0&#45;&gt;node1 -->
<g id="edge1" class="edge">
<title>node0:f0&#45;&gt;node1</title>
<path fill="none" stroke="black" d="M71.5,-60C71.5,-48.35 64.29,-38.12 55.98,-30.2"/>
<polygon fill="black" stroke="black" points="58.12,-27.42 48.23,-23.61 53.58,-32.75 58.12,-27.42"/>
</g>
<!-- node2 -->
<g id="node3" class="node">
<title>node2</title>
<polygon fill="none" stroke="black" points="81,-0.5 81,-23.5 230,-23.5 230,-0.5 81,-0.5"/>
<text text-anchor="middle" x="91" y="-8.3" font-family="Times,serif" font-size="14.00"> </text>
<polyline fill="none" stroke="black" points="101,-0.5 101,-23.5 "/>
<text text-anchor="middle" x="112.5" y="-8.3" font-family="Times,serif" font-size="14.00">3</text>
<polyline fill="none" stroke="black" points="124,-0.5 124,-23.5 "/>
<text text-anchor="middle" x="134" y="-8.3" font-family="Times,serif" font-size="14.00"> </text>
<polyline fill="none" stroke="black" points="144,-0.5 144,-23.5 "/>
<text text-anchor="middle" x="155.5" y="-8.3" font-family="Times,serif" font-size="14.00">4</text>
<polyline fill="none" stroke="black" points="167,-0.5 167,-23.5 "/>
<text text-anchor="middle" x="177" y="-8.3" font-family="Times,serif" font-size="14.00"> </text>
<polyline fill="none" stroke="black" points="187,-0.5 187,-23.5 "/>
<text text-anchor="middle" x="198.5" y="-8.3" font-family="Times,serif" font-size="14.00">5</text>
<polyline fill="none" stroke="black" points="210,-0.5 210,-23.5 "/>
<text text-anchor="middle" x="220" y="-8.3" font-family="Times,serif" font-size="14.00"> </text>
</g>
<!-- node0&#45;&gt;node2 -->
<g id="edge2" class="edge">
<title>node0:f1&#45;&gt;node2</title>
<path fill="none" stroke="black" d="M115.5,-60C115.5,-48.35 122.71,-38.12 131.02,-30.2"/>
<polygon fill="black" stroke="black" points="133.42,-32.75 138.77,-23.61 128.88,-27.42 133.42,-32.75"/>
</g>
</g>
</svg>
