<?xml version="1.0" encoding="UTF-8" standalone="no"?>
<!DOCTYPE svg PUBLIC "-//W3C//DTD SVG 1.1//EN"
 "http://www.w3.org/Graphics/SVG/1.1/DTD/svg11.dtd">
<!-- Generated by graphviz version 2.44.1 (20200629.0846)
 -->
<!-- Title: g Pages: 1 -->
<svg width="238pt" height="92pt"
 viewBox="0.00 0.00 238.00 92.00" xmlns="http://www.w3.org/2000/svg" xmlns:xlink="http://www.w3.org/1999/xlink">
<g id="graph0" class="graph" transform="scale(1 1) rotate(0) translate(4 88)">
<title>g</title>
<polygon fill="white" stroke="transparent" points="-4,4 -4,-88 234,-88 234,4 -4,4"/>
<!-- node0 -->
<g id="node1" class="node">
<title>node0</title>
<polygon fill="none" stroke="black" points="105,-60.5 105,-83.5 168,-83.5 168,-60.5 105,-60.5"/>
<text text-anchor="middle" x="115" y="-68.3" font-family="Times,serif" font-size="14.00"> </text>
<polyline fill="none" stroke="black" points="125,-60.5 125,-83.5 "/>
<text text-anchor="middle" x="136.5" y="-68.3" font-family="Times,serif" font-size="14.00">4</text>
<polyline fill="none" stroke="black" points="148,-60.5 148,-83.5 "/>
<text text-anchor="middle" x="158" y="-68.3" font-family="Times,serif" font-size="14.00"> </text>
</g>
<!-- node1 -->
<g id="node2" class="node">
<title>node1</title>
<polygon fill="none" stroke="black" points="0,-0.5 0,-23.5 149,-23.5 149,-0.5 0,-0.5"/>
<text text-anchor="middle" x="10" y="-8.3" font-family="Times,serif" font-size="14.00"> </text>
<polyline fill="none" stroke="black" points="20,-0.5 20,-23.5 "/>
<text text-anchor="middle" x="31.5" y="-8.3" font-family="Times,serif" font-size="14.00">1</text>
<polyline fill="none" stroke="black" points="43,-0.5 43,-23.5 "/>
<text text-anchor="middle" x="53" y="-8.3" font-family="Times,serif" font-size="14.00"> </text>
<polyline fill="none" stroke="black" points="63,-0.5 63,-23.5 "/>
<text text-anchor="middle" x="74.5" y="-8.3" font-family="Times,serif" font-size="14.00">2</text>
<polyline fill="none" stroke="black" points="86,-0.5 86,-23.5 "/>
<text text-anchor="middle" x="96" y="-8.3" font-family="Times,serif" font-size="14.00"> </text>
<polyline fill="none" stroke="black" points="106,-0.5 106,-23.5 "/>
<text text-anchor="middle" x="117.5" y="-8.3" font-family="Times,serif" font-size="14.00">3</text>
<polyline fill="none" stroke="black" points="129,-0.5 129,-23.5 "/>
<text text-anchor="middle" x="139" y="-8.3" font-family="Times,serif" font-size="14.00"> </text>
</g>
<!-- node0&#45;&gt;node1 -->
<g id="edge1" class="edge">
<title>node0:f0&#45;&gt;node1</title>
<path fill="none" stroke="black" d="M114.5,-60C114.5,-48.35 107.29,-38.12 98.98,-30.2"/>
<polygon fill="black" stroke="black" points="101.12,-27.42 91.23,-23.61 96.58,-32.75 101.12,-27.42"/>
</g>
<!-- node2 -->
<g id="node3" class="node">
<title>node2</title>
<polygon fill="none" stroke="black" points="167,-0.5 167,-23.5 230,-23.5 230,-0.5 167,-0.5"/>
<text text-anchor="middle" x="177" y="-8.3" font-family="Times,serif" font-size="14.00"> </text>
<polyline fill="none" stroke="black" points="187,-0.5 187,-23.5 "/>
<text text-anchor="middle" x="198.5" y="-8.3" font-family="Times,serif" font-size="14.00">5</text>
<polyline fill="none" stroke="black" points="210,-0.5 210,-23.5 "/>
<text text-anchor="middle" x="220" y="-8.3" font-family="Times,serif" font-size="14.00"> </text>
</g>
<!-- node0&#45;&gt;node2 -->
<g id="edge2" class="edge">
<title>node0:f1&#45;&gt;node2</title>
<path fill="none" stroke="black" d="M158.5,-60C158.5,-48.35 165.71,-38.12 174.02,-30.2"/>
<polygon fill="black" stroke="black" points="176.42,-32.75 181.77,-23.61 171.88,-27.42 176.42,-32.75"/>
</g>
</g>
</svg>
