<?xml version="1.0" encoding="UTF-8" standalone="no"?>
<!DOCTYPE svg PUBLIC "-//W3C//DTD SVG 1.1//EN"
 "http://www.w3.org/Graphics/SVG/1.1/DTD/svg11.dtd">
<!-- Generated by graphviz version 2.44.1 (20200629.0846)
 -->
<!-- Title: g Pages: 1 -->
<svg width="238pt" height="92pt"
 viewBox="0.00 0.00 238.00 92.00" xmlns="http://www.w3.org/2000/svg" xmlns:xlink="http://www.w3.org/1999/xlink">
<g id="graph0" class="graph" transform="scale(1 1) rotate(0) translate(4 88)">
<title>g</title>
<polygon fill="white" stroke="transparent" points="-4,4 -4,-88 234,-88 234,4 -4,4"/>
<!-- node0 -->
<g id="node1" class="node">
<title>node0</title>
<polygon fill="none" stroke="black" points="83.5,-60.5 83.5,-83.5 146.5,-83.5 146.5,-60.5 83.5,-60.5"/>
<text text-anchor="middle" x="93.5" y="-68.3" font-family="Times,serif" font-size="14.00"> </text>
<polyline fill="none" stroke="black" points="103.5,-60.5 103.5,-83.5 "/>
<text text-anchor="middle" x="115" y="-68.3" font-family="Times,serif" font-size="14.00">3</text>
<polyline fill="none" stroke="black" points="126.5,-60.5 126.5,-83.5 "/>
<text text-anchor="middle" x="136.5" y="-68.3" font-family="Times,serif" font-size="14.00"> </text>
</g>
<!-- node1 -->
<g id="node2" class="node">
<title>node1</title>
<polygon fill="none" stroke="black" points="0,-0.5 0,-23.5 106,-23.5 106,-0.5 0,-0.5"/>
<text text-anchor="middle" x="10" y="-8.3" font-family="Times,serif" font-size="14.00"> </text>
<polyline fill="none" stroke="black" points="20,-0.5 20,-23.5 "/>
<text text-anchor="middle" x="31.5" y="-8.3" font-family="Times,serif" font-size="14.00">1</text>
<polyline fill="none" stroke="black" points="43,-0.5 43,-23.5 "/>
<text text-anchor="middle" x="53" y="-8.3" font-family="Times,serif" font-size="14.00"> </text>
<polyline fill="none" stroke="black" points="63,-0.5 63,-23.5 "/>
<text text-anchor="middle" x="74.5" y="-8.3" font-family="Times,serif" font-size="14.00">2</text>
<polyline fill="none" stroke="black" points="86,-0.5 86,-23.5 "/>
<text text-anchor="middle" x="96" y="-8.3" font-family="Times,serif" font-size="14.00"> </text>
</g>
<!-- node0&#45;&gt;node1 -->
<g id="edge1" class="edge">
<title>node0:f0&#45;&gt;node1</title>
<path fill="none" stroke="black" d="M93,-60C93,-48.35 85.79,-38.12 77.48,-30.2"/>
<polygon fill="black" stroke="black" points="79.62,-27.42 69.73,-23.61 75.08,-32.75 79.62,-27.42"/>
</g>
<!-- node2 -->
<g id="node3" class="node">
<title>node2</title>
<polygon fill="none" stroke="black" points="124,-0.5 124,-23.5 230,-23.5 230,-0.5 124,-0.5"/>
<text text-anchor="middle" x="134" y="-8.3" font-family="Times,serif" font-size="14.00"> </text>
<polyline fill="none" stroke="black" points="144,-0.5 144,-23.5 "/>
<text text-anchor="middle" x="155.5" y="-8.3" font-family="Times,serif" font-size="14.00">4</text>
<polyline fill="none" stroke="black" points="167,-0.5 167,-23.5 "/>
<text text-anchor="middle" x="177" y="-8.3" font-family="Times,serif" font-size="14.00"> </text>
<polyline fill="none" stroke="black" points="187,-0.5 187,-23.5 "/>
<text text-anchor="middle" x="198.5" y="-8.3" font-family="Times,serif" font-size="14.00">5</text>
<polyline fill="none" stroke="black" points="210,-0.5 210,-23.5 "/>
<text text-anchor="middle" x="220" y="-8.3" font-family="Times,serif" font-size="14.00"> </text>
</g>
<!-- node0&#45;&gt;node2 -->
<g id="edge2" class="edge">
<title>node0:f1&#45;&gt;node2</title>
<path fill="none" stroke="black" d="M137,-60C137,-48.35 144.21,-38.12 152.52,-30.2"/>
<polygon fill="black" stroke="black" points="154.92,-32.75 160.27,-23.61 150.38,-27.42 154.92,-32.75"/>
</g>
</g>
</svg>
