<?xml version="1.0" encoding="UTF-8" standalone="no"?>
<!DOCTYPE svg PUBLIC "-//W3C//DTD SVG 1.1//EN"
 "http://www.w3.org/Graphics/SVG/1.1/DTD/svg11.dtd">
<!-- Generated by graphviz version 2.44.1 (20200629.0846)
 -->
<!-- Title: g Pages: 1 -->
<svg width="196pt" height="92pt"
 viewBox="0.00 0.00 195.50 92.00" xmlns="http://www.w3.org/2000/svg" xmlns:xlink="http://www.w3.org/1999/xlink">
<g id="graph0" class="graph" transform="scale(1 1) rotate(0) translate(4 88)">
<title>g</title>
<polygon fill="white" stroke="transparent" points="-4,4 -4,-88 191.5,-88 191.5,4 -4,4"/>
<!-- node0 -->
<g id="node1" class="node">
<title>node0</title>
<polygon fill="none" stroke="black" points="51.5,-60.5 51.5,-83.5 157.5,-83.5 157.5,-60.5 51.5,-60.5"/>
<text text-anchor="middle" x="61.5" y="-68.3" font-family="Times,serif" font-size="14.00"> </text>
<polyline fill="none" stroke="black" points="71.5,-60.5 71.5,-83.5 "/>
<text text-anchor="middle" x="83" y="-68.3" font-family="Times,serif" font-size="14.00">2</text>
<polyline fill="none" stroke="black" points="94.5,-60.5 94.5,-83.5 "/>
<text text-anchor="middle" x="104.5" y="-68.3" font-family="Times,serif" font-size="14.00"> </text>
<polyline fill="none" stroke="black" points="114.5,-60.5 114.5,-83.5 "/>
<text text-anchor="middle" x="126" y="-68.3" font-family="Times,serif" font-size="14.00">3</text>
<polyline fill="none" stroke="black" points="137.5,-60.5 137.5,-83.5 "/>
<text text-anchor="middle" x="147.5" y="-68.3" font-family="Times,serif" font-size="14.00"> </text>
</g>
<!-- node1 -->
<g id="node2" class="node">
<title>node1</title>
<polygon fill="none" stroke="black" points="0,-0.5 0,-23.5 63,-23.5 63,-0.5 0,-0.5"/>
<text text-anchor="middle" x="10" y="-8.3" font-family="Times,serif" font-size="14.00"> </text>
<polyline fill="none" stroke="black" points="20,-0.5 20,-23.5 "/>
<text text-anchor="middle" x="31.5" y="-8.3" font-family="Times,serif" font-size="14.00">1</text>
<polyline fill="none" stroke="black" points="43,-0.5 43,-23.5 "/>
<text text-anchor="middle" x="53" y="-8.3" font-family="Times,serif" font-size="14.00"> </text>
</g>
<!-- node0&#45;&gt;node1 -->
<g id="edge1" class="edge">
<title>node0:f0&#45;&gt;node1</title>
<path fill="none" stroke="black" d="M61.5,-60C61.5,-49.51 56.13,-39.48 49.93,-31.4"/>
<polygon fill="black" stroke="black" points="52.53,-29.06 43.36,-23.75 47.21,-33.62 52.53,-29.06"/>
</g>
<!-- node2 -->
<g id="node3" class="node">
<title>node2</title>
<polygon fill="none" stroke="black" points="81.5,-0.5 81.5,-23.5 187.5,-23.5 187.5,-0.5 81.5,-0.5"/>
<text text-anchor="middle" x="91.5" y="-8.3" font-family="Times,serif" font-size="14.00"> </text>
<polyline fill="none" stroke="black" points="101.5,-0.5 101.5,-23.5 "/>
<text text-anchor="middle" x="113" y="-8.3" font-family="Times,serif" font-size="14.00">4</text>
<polyline fill="none" stroke="black" points="124.5,-0.5 124.5,-23.5 "/>
<text text-anchor="middle" x="134.5" y="-8.3" font-family="Times,serif" font-size="14.00"> </text>
<polyline fill="none" stroke="black" points="144.5,-0.5 144.5,-23.5 "/>
<text text-anchor="middle" x="156" y="-8.3" font-family="Times,serif" font-size="14.00">5</text>
<polyline fill="none" stroke="black" points="167.5,-0.5 167.5,-23.5 "/>
<text text-anchor="middle" x="177.5" y="-8.3" font-family="Times,serif" font-size="14.00"> </text>
</g>
<!-- node0&#45;&gt;node2 -->
<g id="edge2" class="edge">
<title>node0:f1&#45;&gt;node2</title>
<path fill="none" stroke="black" d="M104.5,-60C104.5,-49.51 109.87,-39.48 116.07,-31.4"/>
<polygon fill="black" stroke="black" points="118.79,-33.62 122.64,-23.75 113.47,-29.06 118.79,-33.62"/>
</g>
</g>
</svg>
