<?xml version="1.0" encoding="UTF-8" standalone="no"?>
<!DOCTYPE svg PUBLIC "-//W3C//DTD SVG 1.1//EN"
 "http://www.w3.org/Graphics/SVG/1.1/DTD/svg11.dtd">
<!-- Generated by graphviz version 2.44.1 (20200629.0846)
 -->
<!-- Title: g Pages: 1 -->
<svg width="196pt" height="92pt"
 viewBox="0.00 0.00 195.50 92.00" xmlns="http://www.w3.org/2000/svg" xmlns:xlink="http://www.w3.org/1999/xlink">
<g id="graph0" class="graph" transform="scale(1 1) rotate(0) translate(4 88)">
<title>g</title>
<polygon fill="white" stroke="transparent" points="-4,4 -4,-88 191.5,-88 191.5,4 -4,4"/>
<!-- node0 -->
<g id="node1" class="node">
<title>node0</title>
<polygon fill="none" stroke="black" points="73,-60.5 73,-83.5 179,-83.5 179,-60.5 73,-60.5"/>
<text text-anchor="middle" x="83" y="-68.3" font-family="Times,serif" font-size="14.00"> </text>
<polyline fill="none" stroke="black" points="93,-60.5 93,-83.5 "/>
<text text-anchor="middle" x="104.5" y="-68.3" font-family="Times,serif" font-size="14.00">3</text>
<polyline fill="none" stroke="black" points="116,-60.5 116,-83.5 "/>
<text text-anchor="middle" x="126" y="-68.3" font-family="Times,serif" font-size="14.00"> </text>
<polyline fill="none" stroke="black" points="136,-60.5 136,-83.5 "/>
<text text-anchor="middle" x="147.5" y="-68.3" font-family="Times,serif" font-size="14.00">4</text>
<polyline fill="none" stroke="black" points="159,-60.5 159,-83.5 "/>
<text text-anchor="middle" x="169" y="-68.3" font-family="Times,serif" font-size="14.00"> </text>
</g>
<!-- node1 -->
<g id="node2" class="node">
<title>node1</title>
<polygon fill="none" stroke="black" points="0,-0.5 0,-23.5 106,-23.5 106,-0.5 0,-0.5"/>
<text text-anchor="middle" x="10" y="-8.3" font-family="Times,serif" font-size="14.00"> </text>
<polyline fill="none" stroke="black" points="20,-0.5 20,-23.5 "/>
<text text-anchor="middle" x="31.5" y="-8.3" font-family="Times,serif" font-size="14.00">1</text>
<polyline fill="none" stroke="black" points="43,-0.5 43,-23.5 "/>
<text text-anchor="middle" x="53" y="-8.3" font-family="Times,serif" font-size="14.00"> </text>
<polyline fill="none" stroke="black" points="63,-0.5 63,-23.5 "/>
<text text-anchor="middle" x="74.5" y="-8.3" font-family="Times,serif" font-size="14.00">2</text>
<polyline fill="none" stroke="black" points="86,-0.5 86,-23.5 "/>
<text text-anchor="middle" x="96" y="-8.3" font-family="Times,serif" font-size="14.00"> </text>
</g>
<!-- node0&#45;&gt;node1 -->
<g id="edge1" class="edge">
<title>node0:f0&#45;&gt;node1</title>
<path fill="none" stroke="black" d="M83,-60C83,-49.51 77.63,-39.48 71.43,-31.4"/>
<polygon fill="black" stroke="black" points="74.03,-29.06 64.86,-23.75 68.71,-33.62 74.03,-29.06"/>
</g>
<!-- node2 -->
<g id="node3" class="node">
<title>node2</title>
<polygon fill="none" stroke="black" points="124.5,-0.5 124.5,-23.5 187.5,-23.5 187.5,-0.5 124.5,-0.5"/>
<text text-anchor="middle" x="134.5" y="-8.3" font-family="Times,serif" font-size="14.00"> </text>
<polyline fill="none" stroke="black" points="144.5,-0.5 144.5,-23.5 "/>
<text text-anchor="middle" x="156" y="-8.3" font-family="Times,serif" font-size="14.00">5</text>
<polyline fill="none" stroke="black" points="167.5,-0.5 167.5,-23.5 "/>
<text text-anchor="middle" x="177.5" y="-8.3" font-family="Times,serif" font-size="14.00"> </text>
</g>
<!-- node0&#45;&gt;node2 -->
<g id="edge2" class="edge">
<title>node0:f1&#45;&gt;node2</title>
<path fill="none" stroke="black" d="M126,-60C126,-49.51 131.37,-39.48 137.57,-31.4"/>
<polygon fill="black" stroke="black" points="140.29,-33.62 144.14,-23.75 134.97,-29.06 140.29,-33.62"/>
</g>
</g>
</svg>
