<?xml version="1.0" encoding="UTF-8" standalone="no"?>
<!DOCTYPE svg PUBLIC "-//W3C//DTD SVG 1.1//EN"
 "http://www.w3.org/Graphics/SVG/1.1/DTD/svg11.dtd">
<!-- Generated by graphviz version 2.44.1 (20200629.0846)
 -->
<!-- Title: g Pages: 1 -->
<svg width="198pt" height="92pt"
 viewBox="0.00 0.00 198.00 92.00" xmlns="http://www.w3.org/2000/svg" xmlns:xlink="http://www.w3.org/1999/xlink">
<g id="graph0" class="graph" transform="scale(1 1) rotate(0) translate(4 88)">
<title>g</title>
<polygon fill="white" stroke="transparent" points="-4,4 -4,-88 194,-88 194,4 -4,4"/>
<!-- node0 -->
<g id="node1" class="node">
<title>node0</title>
<polygon fill="none" stroke="black" points="41,-60.5 41,-83.5 190,-83.5 190,-60.5 41,-60.5"/>
<text text-anchor="middle" x="51" y="-68.3" font-family="Times,serif" font-size="14.00"> </text>
<polyline fill="none" stroke="black" points="61,-60.5 61,-83.5 "/>
<text text-anchor="middle" x="72.5" y="-68.3" font-family="Times,serif" font-size="14.00">2</text>
<polyline fill="none" stroke="black" points="84,-60.5 84,-83.5 "/>
<text text-anchor="middle" x="94" y="-68.3" font-family="Times,serif" font-size="14.00"> </text>
<polyline fill="none" stroke="black" points="104,-60.5 104,-83.5 "/>
<text text-anchor="middle" x="115.5" y="-68.3" font-family="Times,serif" font-size="14.00">3</text>
<polyline fill="none" stroke="black" points="127,-60.5 127,-83.5 "/>
<text text-anchor="middle" x="137" y="-68.3" font-family="Times,serif" font-size="14.00"> </text>
<polyline fill="none" stroke="black" points="147,-60.5 147,-83.5 "/>
<text text-anchor="middle" x="158.5" y="-68.3" font-family="Times,serif" font-size="14.00">4</text>
<polyline fill="none" stroke="black" points="170,-60.5 170,-83.5 "/>
<text text-anchor="middle" x="180" y="-68.3" font-family="Times,serif" font-size="14.00"> </text>
</g>
<!-- node1 -->
<g id="node2" class="node">
<title>node1</title>
<polygon fill="none" stroke="black" points="0,-0.5 0,-23.5 63,-23.5 63,-0.5 0,-0.5"/>
<text text-anchor="middle" x="10" y="-8.3" font-family="Times,serif" font-size="14.00"> </text>
<polyline fill="none" stroke="black" points="20,-0.5 20,-23.5 "/>
<text text-anchor="middle" x="31.5" y="-8.3" font-family="Times,serif" font-size="14.00">1</text>
<polyline fill="none" stroke="black" points="43,-0.5 43,-23.5 "/>
<text text-anchor="middle" x="53" y="-8.3" font-family="Times,serif" font-size="14.00"> </text>
</g>
<!-- node0&#45;&gt;node1 -->
<g id="edge1" class="edge">
<title>node0:f0&#45;&gt;node1</title>
<path fill="none" stroke="black" d="M50.5,-60C50.5,-50.61 47.2,-40.89 43.36,-32.74"/>
<polygon fill="black" stroke="black" points="46.35,-30.91 38.57,-23.71 40.16,-34.19 46.35,-30.91"/>
</g>
<!-- node2 -->
<g id="node3" class="node">
<title>node2</title>
<polygon fill="none" stroke="black" points="81,-0.5 81,-23.5 144,-23.5 144,-0.5 81,-0.5"/>
<text text-anchor="middle" x="91" y="-8.3" font-family="Times,serif" font-size="14.00"> </text>
<polyline fill="none" stroke="black" points="101,-0.5 101,-23.5 "/>
<text text-anchor="middle" x="112.5" y="-8.3" font-family="Times,serif" font-size="14.00">5</text>
<polyline fill="none" stroke="black" points="124,-0.5 124,-23.5 "/>
<text text-anchor="middle" x="134" y="-8.3" font-family="Times,serif" font-size="14.00"> </text>
</g>
<!-- node0&#45;&gt;node2 -->
<g id="edge2" class="edge">
<title>node0:f1&#45;&gt;node2</title>
<path fill="none" stroke="black" d="M93.5,-60C93.5,-50.61 96.8,-40.89 100.64,-32.74"/>
<polygon fill="black" stroke="black" points="103.84,-34.19 105.43,-23.71 97.65,-30.91 103.84,-34.19"/>
</g>
</g>
</svg>
