<?xml version="1.0" encoding="UTF-8" standalone="no"?>
<!DOCTYPE svg PUBLIC "-//W3C//DTD SVG 1.1//EN"
 "http://www.w3.org/Graphics/SVG/1.1/DTD/svg11.dtd">
<!-- Generated by graphviz version 2.44.1 (20200629.0846)
 -->
<!-- Title: g Pages: 1 -->
<svg width="162pt" height="32pt"
 viewBox="0.00 0.00 162.00 32.00" xmlns="http://www.w3.org/2000/svg" xmlns:xlink="http://www.w3.org/1999/xlink">
<g id="graph0" class="graph" transform="scale(1 1) rotate(0) translate(4 28)">
<title>g</title>
<polygon fill="white" stroke="transparent" points="-4,4 -4,-28 158,-28 158,4 -4,4"/>
<!-- node0 -->
<g id="node1" class="node">
<title>node0</title>
<polygon fill="none" stroke="black" points="0,-0.5 0,-23.5 154,-23.5 154,-0.5 0,-0.5"/>
<text text-anchor="middle" x="10" y="-8.3" font-family="Times,serif" font-size="14.00"> </text>
<polyline fill="none" stroke="black" points="20,-0.5 20,-23.5 "/>
<text text-anchor="middle" x="32" y="-8.3" font-family="Times,serif" font-size="14.00">F</text>
<polyline fill="none" stroke="black" points="44,-0.5 44,-23.5 "/>
<text text-anchor="middle" x="54" y="-8.3" font-family="Times,serif" font-size="14.00"> </text>
<polyline fill="none" stroke="black" points="64,-0.5 64,-23.5 "/>
<text text-anchor="middle" x="77" y="-8.3" font-family="Times,serif" font-size="14.00">Q</text>
<polyline fill="none" stroke="black" points="90,-0.5 90,-23.5 "/>
<text text-anchor="middle" x="100" y="-8.3" font-family="Times,serif" font-size="14.00"> </text>
<polyline fill="none" stroke="black" points="110,-0.5 110,-23.5 "/>
<text text-anchor="middle" x="122" y="-8.3" font-family="Times,serif" font-size="14.00">S</text>
<polyline fill="none" stroke="black" points="134,-0.5 134,-23.5 "/>
<text text-anchor="middle" x="144" y="-8.3" font-family="Times,serif" font-size="14.00"> </text>
</g>
</g>
</svg>
