<?xml version="1.0" encoding="UTF-8" standalone="no"?>
<!DOCTYPE svg PUBLIC "-//W3C//DTD SVG 1.1//EN"
 "http://www.w3.org/Graphics/SVG/1.1/DTD/svg11.dtd">
<!-- Generated by graphviz version 2.44.1 (20200629.0846)
 -->
<!-- Title: g Pages: 1 -->
<svg width="246pt" height="92pt"
 viewBox="0.00 0.00 246.00 92.00" xmlns="http://www.w3.org/2000/svg" xmlns:xlink="http://www.w3.org/1999/xlink">
<g id="graph0" class="graph" transform="scale(1 1) rotate(0) translate(4 88)">
<title>g</title>
<polygon fill="white" stroke="transparent" points="-4,4 -4,-88 242,-88 242,4 -4,4"/>
<!-- node0 -->
<g id="node1" class="node">
<title>node0</title>
<polygon fill="none" stroke="black" points="109,-60.5 109,-83.5 175,-83.5 175,-60.5 109,-60.5"/>
<text text-anchor="middle" x="119" y="-68.3" font-family="Times,serif" font-size="14.00"> </text>
<polyline fill="none" stroke="black" points="129,-60.5 129,-83.5 "/>
<text text-anchor="middle" x="142" y="-68.3" font-family="Times,serif" font-size="14.00">Q</text>
<polyline fill="none" stroke="black" points="155,-60.5 155,-83.5 "/>
<text text-anchor="middle" x="165" y="-68.3" font-family="Times,serif" font-size="14.00"> </text>
</g>
<!-- node1 -->
<g id="node2" class="node">
<title>node1</title>
<polygon fill="none" stroke="black" points="0,-0.5 0,-23.5 156,-23.5 156,-0.5 0,-0.5"/>
<text text-anchor="middle" x="10" y="-8.3" font-family="Times,serif" font-size="14.00"> </text>
<polyline fill="none" stroke="black" points="20,-0.5 20,-23.5 "/>
<text text-anchor="middle" x="33" y="-8.3" font-family="Times,serif" font-size="14.00">C</text>
<polyline fill="none" stroke="black" points="46,-0.5 46,-23.5 "/>
<text text-anchor="middle" x="56" y="-8.3" font-family="Times,serif" font-size="14.00"> </text>
<polyline fill="none" stroke="black" points="66,-0.5 66,-23.5 "/>
<text text-anchor="middle" x="78" y="-8.3" font-family="Times,serif" font-size="14.00">F</text>
<polyline fill="none" stroke="black" points="90,-0.5 90,-23.5 "/>
<text text-anchor="middle" x="100" y="-8.3" font-family="Times,serif" font-size="14.00"> </text>
<polyline fill="none" stroke="black" points="110,-0.5 110,-23.5 "/>
<text text-anchor="middle" x="123" y="-8.3" font-family="Times,serif" font-size="14.00">K</text>
<polyline fill="none" stroke="black" points="136,-0.5 136,-23.5 "/>
<text text-anchor="middle" x="146" y="-8.3" font-family="Times,serif" font-size="14.00"> </text>
</g>
<!-- node0&#45;&gt;node1 -->
<g id="edge1" class="edge">
<title>node0:f0&#45;&gt;node1</title>
<path fill="none" stroke="black" d="M119,-60C119,-48.23 111.61,-37.98 103.1,-30.08"/>
<polygon fill="black" stroke="black" points="105.09,-27.19 95.15,-23.51 100.63,-32.58 105.09,-27.19"/>
</g>
<!-- node2 -->
<g id="node3" class="node">
<title>node2</title>
<polygon fill="none" stroke="black" points="174,-0.5 174,-23.5 238,-23.5 238,-0.5 174,-0.5"/>
<text text-anchor="middle" x="184" y="-8.3" font-family="Times,serif" font-size="14.00"> </text>
<polyline fill="none" stroke="black" points="194,-0.5 194,-23.5 "/>
<text text-anchor="middle" x="206" y="-8.3" font-family="Times,serif" font-size="14.00">S</text>
<polyline fill="none" stroke="black" points="218,-0.5 218,-23.5 "/>
<text text-anchor="middle" x="228" y="-8.3" font-family="Times,serif" font-size="14.00"> </text>
</g>
<!-- node0&#45;&gt;node2 -->
<g id="edge2" class="edge">
<title>node0:f1&#45;&gt;node2</title>
<path fill="none" stroke="black" d="M165,-60C165,-48.23 172.39,-37.98 180.9,-30.08"/>
<polygon fill="black" stroke="black" points="183.37,-32.58 188.85,-23.51 178.91,-27.19 183.37,-32.58"/>
</g>
</g>
</svg>
