<?xml version="1.0" encoding="UTF-8" standalone="no"?>
<!DOCTYPE svg PUBLIC "-//W3C//DTD SVG 1.1//EN"
 "http://www.w3.org/Graphics/SVG/1.1/DTD/svg11.dtd">
<!-- Generated by graphviz version 2.44.1 (20200629.0846)
 -->
<!-- Title: g Pages: 1 -->
<svg width="423pt" height="92pt"
 viewBox="0.00 0.00 422.50 92.00" xmlns="http://www.w3.org/2000/svg" xmlns:xlink="http://www.w3.org/1999/xlink">
<g id="graph0" class="graph" transform="scale(1 1) rotate(0) translate(4 88)">
<title>g</title>
<polygon fill="white" stroke="transparent" points="-4,4 -4,-88 418.5,-88 418.5,4 -4,4"/>
<!-- node0 -->
<g id="node1" class="node">
<title>node0</title>
<polygon fill="none" stroke="black" points="109,-60.5 109,-83.5 219,-83.5 219,-60.5 109,-60.5"/>
<text text-anchor="middle" x="119" y="-68.3" font-family="Times,serif" font-size="14.00"> </text>
<polyline fill="none" stroke="black" points="129,-60.5 129,-83.5 "/>
<text text-anchor="middle" x="141" y="-68.3" font-family="Times,serif" font-size="14.00">F</text>
<polyline fill="none" stroke="black" points="153,-60.5 153,-83.5 "/>
<text text-anchor="middle" x="163" y="-68.3" font-family="Times,serif" font-size="14.00"> </text>
<polyline fill="none" stroke="black" points="173,-60.5 173,-83.5 "/>
<text text-anchor="middle" x="186" y="-68.3" font-family="Times,serif" font-size="14.00">Q</text>
<polyline fill="none" stroke="black" points="199,-60.5 199,-83.5 "/>
<text text-anchor="middle" x="209" y="-68.3" font-family="Times,serif" font-size="14.00"> </text>
</g>
<!-- node1 -->
<g id="node2" class="node">
<title>node1</title>
<polygon fill="none" stroke="black" points="0,-0.5 0,-23.5 66,-23.5 66,-0.5 0,-0.5"/>
<text text-anchor="middle" x="10" y="-8.3" font-family="Times,serif" font-size="14.00"> </text>
<polyline fill="none" stroke="black" points="20,-0.5 20,-23.5 "/>
<text text-anchor="middle" x="33" y="-8.3" font-family="Times,serif" font-size="14.00">C</text>
<polyline fill="none" stroke="black" points="46,-0.5 46,-23.5 "/>
<text text-anchor="middle" x="56" y="-8.3" font-family="Times,serif" font-size="14.00"> </text>
</g>
<!-- node0&#45;&gt;node1 -->
<g id="edge1" class="edge">
<title>node0:f0&#45;&gt;node1</title>
<path fill="none" stroke="black" d="M108,-72C81.62,-72 59.04,-49.17 45.74,-31.91"/>
<polygon fill="black" stroke="black" points="48.37,-29.58 39.66,-23.55 42.7,-33.69 48.37,-29.58"/>
</g>
<!-- node2 -->
<g id="node3" class="node">
<title>node2</title>
<polygon fill="none" stroke="black" points="84.5,-0.5 84.5,-23.5 241.5,-23.5 241.5,-0.5 84.5,-0.5"/>
<text text-anchor="middle" x="94.5" y="-8.3" font-family="Times,serif" font-size="14.00"> </text>
<polyline fill="none" stroke="black" points="104.5,-0.5 104.5,-23.5 "/>
<text text-anchor="middle" x="117.5" y="-8.3" font-family="Times,serif" font-size="14.00">H</text>
<polyline fill="none" stroke="black" points="130.5,-0.5 130.5,-23.5 "/>
<text text-anchor="middle" x="140.5" y="-8.3" font-family="Times,serif" font-size="14.00"> </text>
<polyline fill="none" stroke="black" points="150.5,-0.5 150.5,-23.5 "/>
<text text-anchor="middle" x="163.5" y="-8.3" font-family="Times,serif" font-size="14.00">K</text>
<polyline fill="none" stroke="black" points="176.5,-0.5 176.5,-23.5 "/>
<text text-anchor="middle" x="186.5" y="-8.3" font-family="Times,serif" font-size="14.00"> </text>
<polyline fill="none" stroke="black" points="196.5,-0.5 196.5,-23.5 "/>
<text text-anchor="middle" x="209" y="-8.3" font-family="Times,serif" font-size="14.00">L</text>
<polyline fill="none" stroke="black" points="221.5,-0.5 221.5,-23.5 "/>
<text text-anchor="middle" x="231.5" y="-8.3" font-family="Times,serif" font-size="14.00"> </text>
</g>
<!-- node0&#45;&gt;node2 -->
<g id="edge2" class="edge">
<title>node0:f1&#45;&gt;node2</title>
<path fill="none" stroke="black" d="M163,-60C163,-51.47 163,-42.08 163,-33.94"/>
<polygon fill="black" stroke="black" points="166.5,-33.83 163,-23.83 159.5,-33.83 166.5,-33.83"/>
</g>
<!-- node3 -->
<g id="node4" class="node">
<title>node3</title>
<polygon fill="none" stroke="black" points="259.5,-0.5 259.5,-23.5 414.5,-23.5 414.5,-0.5 259.5,-0.5"/>
<text text-anchor="middle" x="269.5" y="-8.3" font-family="Times,serif" font-size="14.00"> </text>
<polyline fill="none" stroke="black" points="279.5,-0.5 279.5,-23.5 "/>
<text text-anchor="middle" x="291.5" y="-8.3" font-family="Times,serif" font-size="14.00">S</text>
<polyline fill="none" stroke="black" points="303.5,-0.5 303.5,-23.5 "/>
<text text-anchor="middle" x="313.5" y="-8.3" font-family="Times,serif" font-size="14.00"> </text>
<polyline fill="none" stroke="black" points="323.5,-0.5 323.5,-23.5 "/>
<text text-anchor="middle" x="336" y="-8.3" font-family="Times,serif" font-size="14.00">T</text>
<polyline fill="none" stroke="black" points="348.5,-0.5 348.5,-23.5 "/>
<text text-anchor="middle" x="358.5" y="-8.3" font-family="Times,serif" font-size="14.00"> </text>
<polyline fill="none" stroke="black" points="368.5,-0.5 368.5,-23.5 "/>
<text text-anchor="middle" x="381.5" y="-8.3" font-family="Times,serif" font-size="14.00">V</text>
<polyline fill="none" stroke="black" points="394.5,-0.5 394.5,-23.5 "/>
<text text-anchor="middle" x="404.5" y="-8.3" font-family="Times,serif" font-size="14.00"> </text>
</g>
<!-- node0&#45;&gt;node3 -->
<g id="edge3" class="edge">
<title>node0:f2&#45;&gt;node3</title>
<path fill="none" stroke="black" d="M220,-72C257.56,-72 295.33,-47.46 317.42,-30.04"/>
<polygon fill="black" stroke="black" points="319.83,-32.59 325.35,-23.55 315.4,-27.17 319.83,-32.59"/>
</g>
</g>
</svg>
