<?xml version="1.0" encoding="UTF-8" standalone="no"?>
<!DOCTYPE svg PUBLIC "-//W3C//DTD SVG 1.1//EN"
 "http://www.w3.org/Graphics/SVG/1.1/DTD/svg11.dtd">
<!-- Generated by graphviz version 2.44.1 (20200629.0846)
 -->
<!-- Title: g Pages: 1 -->
<svg width="466pt" height="92pt"
 viewBox="0.00 0.00 466.00 92.00" xmlns="http://www.w3.org/2000/svg" xmlns:xlink="http://www.w3.org/1999/xlink">
<g id="graph0" class="graph" transform="scale(1 1) rotate(0) translate(4 88)">
<title>g</title>
<polygon fill="white" stroke="transparent" points="-4,4 -4,-88 462,-88 462,4 -4,4"/>
<!-- node0 -->
<g id="node1" class="node">
<title>node0</title>
<polygon fill="none" stroke="black" points="150.5,-60.5 150.5,-83.5 305.5,-83.5 305.5,-60.5 150.5,-60.5"/>
<text text-anchor="middle" x="160.5" y="-68.3" font-family="Times,serif" font-size="14.00"> </text>
<polyline fill="none" stroke="black" points="170.5,-60.5 170.5,-83.5 "/>
<text text-anchor="middle" x="182.5" y="-68.3" font-family="Times,serif" font-size="14.00">F</text>
<polyline fill="none" stroke="black" points="194.5,-60.5 194.5,-83.5 "/>
<text text-anchor="middle" x="204.5" y="-68.3" font-family="Times,serif" font-size="14.00"> </text>
<polyline fill="none" stroke="black" points="214.5,-60.5 214.5,-83.5 "/>
<text text-anchor="middle" x="227.5" y="-68.3" font-family="Times,serif" font-size="14.00">Q</text>
<polyline fill="none" stroke="black" points="240.5,-60.5 240.5,-83.5 "/>
<text text-anchor="middle" x="250.5" y="-68.3" font-family="Times,serif" font-size="14.00"> </text>
<polyline fill="none" stroke="black" points="260.5,-60.5 260.5,-83.5 "/>
<text text-anchor="middle" x="273" y="-68.3" font-family="Times,serif" font-size="14.00">T</text>
<polyline fill="none" stroke="black" points="285.5,-60.5 285.5,-83.5 "/>
<text text-anchor="middle" x="295.5" y="-68.3" font-family="Times,serif" font-size="14.00"> </text>
</g>
<!-- node1 -->
<g id="node2" class="node">
<title>node1</title>
<polygon fill="none" stroke="black" points="0,-0.5 0,-23.5 66,-23.5 66,-0.5 0,-0.5"/>
<text text-anchor="middle" x="10" y="-8.3" font-family="Times,serif" font-size="14.00"> </text>
<polyline fill="none" stroke="black" points="20,-0.5 20,-23.5 "/>
<text text-anchor="middle" x="33" y="-8.3" font-family="Times,serif" font-size="14.00">C</text>
<polyline fill="none" stroke="black" points="46,-0.5 46,-23.5 "/>
<text text-anchor="middle" x="56" y="-8.3" font-family="Times,serif" font-size="14.00"> </text>
</g>
<!-- node0&#45;&gt;node1 -->
<g id="edge1" class="edge">
<title>node0:f0&#45;&gt;node1</title>
<path fill="none" stroke="black" d="M149,-72C111.7,-72 74.27,-47.46 52.39,-30.04"/>
<polygon fill="black" stroke="black" points="54.47,-27.22 44.53,-23.55 50.01,-32.62 54.47,-27.22"/>
</g>
<!-- node2 -->
<g id="node3" class="node">
<title>node2</title>
<polygon fill="none" stroke="black" points="84.5,-0.5 84.5,-23.5 241.5,-23.5 241.5,-0.5 84.5,-0.5"/>
<text text-anchor="middle" x="94.5" y="-8.3" font-family="Times,serif" font-size="14.00"> </text>
<polyline fill="none" stroke="black" points="104.5,-0.5 104.5,-23.5 "/>
<text text-anchor="middle" x="117.5" y="-8.3" font-family="Times,serif" font-size="14.00">H</text>
<polyline fill="none" stroke="black" points="130.5,-0.5 130.5,-23.5 "/>
<text text-anchor="middle" x="140.5" y="-8.3" font-family="Times,serif" font-size="14.00"> </text>
<polyline fill="none" stroke="black" points="150.5,-0.5 150.5,-23.5 "/>
<text text-anchor="middle" x="163.5" y="-8.3" font-family="Times,serif" font-size="14.00">K</text>
<polyline fill="none" stroke="black" points="176.5,-0.5 176.5,-23.5 "/>
<text text-anchor="middle" x="186.5" y="-8.3" font-family="Times,serif" font-size="14.00"> </text>
<polyline fill="none" stroke="black" points="196.5,-0.5 196.5,-23.5 "/>
<text text-anchor="middle" x="209" y="-8.3" font-family="Times,serif" font-size="14.00">L</text>
<polyline fill="none" stroke="black" points="221.5,-0.5 221.5,-23.5 "/>
<text text-anchor="middle" x="231.5" y="-8.3" font-family="Times,serif" font-size="14.00"> </text>
</g>
<!-- node0&#45;&gt;node2 -->
<g id="edge2" class="edge">
<title>node0:f1&#45;&gt;node2</title>
<path fill="none" stroke="black" d="M204,-60C204,-48.23 196.61,-37.98 188.1,-30.08"/>
<polygon fill="black" stroke="black" points="190.09,-27.19 180.15,-23.51 185.63,-32.58 190.09,-27.19"/>
</g>
<!-- node3 -->
<g id="node4" class="node">
<title>node3</title>
<polygon fill="none" stroke="black" points="260,-0.5 260,-23.5 324,-23.5 324,-0.5 260,-0.5"/>
<text text-anchor="middle" x="270" y="-8.3" font-family="Times,serif" font-size="14.00"> </text>
<polyline fill="none" stroke="black" points="280,-0.5 280,-23.5 "/>
<text text-anchor="middle" x="292" y="-8.3" font-family="Times,serif" font-size="14.00">S</text>
<polyline fill="none" stroke="black" points="304,-0.5 304,-23.5 "/>
<text text-anchor="middle" x="314" y="-8.3" font-family="Times,serif" font-size="14.00"> </text>
</g>
<!-- node0&#45;&gt;node3 -->
<g id="edge3" class="edge">
<title>node0:f2&#45;&gt;node3</title>
<path fill="none" stroke="black" d="M251,-60C251,-48.23 258.39,-37.98 266.9,-30.08"/>
<polygon fill="black" stroke="black" points="269.37,-32.58 274.85,-23.51 264.91,-27.19 269.37,-32.58"/>
</g>
<!-- node4 -->
<g id="node5" class="node">
<title>node4</title>
<polygon fill="none" stroke="black" points="342,-0.5 342,-23.5 458,-23.5 458,-0.5 342,-0.5"/>
<text text-anchor="middle" x="352" y="-8.3" font-family="Times,serif" font-size="14.00"> </text>
<polyline fill="none" stroke="black" points="362,-0.5 362,-23.5 "/>
<text text-anchor="middle" x="375" y="-8.3" font-family="Times,serif" font-size="14.00">V</text>
<polyline fill="none" stroke="black" points="388,-0.5 388,-23.5 "/>
<text text-anchor="middle" x="398" y="-8.3" font-family="Times,serif" font-size="14.00"> </text>
<polyline fill="none" stroke="black" points="408,-0.5 408,-23.5 "/>
<text text-anchor="middle" x="423" y="-8.3" font-family="Times,serif" font-size="14.00">W</text>
<polyline fill="none" stroke="black" points="438,-0.5 438,-23.5 "/>
<text text-anchor="middle" x="448" y="-8.3" font-family="Times,serif" font-size="14.00"> </text>
</g>
<!-- node0&#45;&gt;node4 -->
<g id="edge4" class="edge">
<title>node0:f3&#45;&gt;node4</title>
<path fill="none" stroke="black" d="M307,-72C338.01,-72 367.05,-48.33 384.17,-30.97"/>
<polygon fill="black" stroke="black" points="386.86,-33.23 391.17,-23.55 381.76,-28.43 386.86,-33.23"/>
</g>
</g>
</svg>
