<?xml version="1.0" encoding="UTF-8" standalone="no"?>
<!DOCTYPE svg PUBLIC "-//W3C//DTD SVG 1.1//EN"
 "http://www.w3.org/Graphics/SVG/1.1/DTD/svg11.dtd">
<!-- Generated by graphviz version 2.44.1 (20200629.0846)
 -->
<!-- Title: g Pages: 1 -->
<svg width="598pt" height="152pt"
 viewBox="0.00 0.00 598.00 152.00" xmlns="http://www.w3.org/2000/svg" xmlns:xlink="http://www.w3.org/1999/xlink">
<g id="graph0" class="graph" transform="scale(1 1) rotate(0) translate(4 148)">
<title>g</title>
<polygon fill="white" stroke="transparent" points="-4,4 -4,-148 594,-148 594,4 -4,4"/>
<!-- node0 -->
<g id="node1" class="node">
<title>node0</title>
<polygon fill="none" stroke="black" points="280,-120.5 280,-143.5 346,-143.5 346,-120.5 280,-120.5"/>
<text text-anchor="middle" x="290" y="-128.3" font-family="Times,serif" font-size="14.00"> </text>
<polyline fill="none" stroke="black" points="300,-120.5 300,-143.5 "/>
<text text-anchor="middle" x="313" y="-128.3" font-family="Times,serif" font-size="14.00">Q</text>
<polyline fill="none" stroke="black" points="326,-120.5 326,-143.5 "/>
<text text-anchor="middle" x="336" y="-128.3" font-family="Times,serif" font-size="14.00"> </text>
</g>
<!-- node1 -->
<g id="node2" class="node">
<title>node1</title>
<polygon fill="none" stroke="black" points="105,-60.5 105,-83.5 215,-83.5 215,-60.5 105,-60.5"/>
<text text-anchor="middle" x="115" y="-68.3" font-family="Times,serif" font-size="14.00"> </text>
<polyline fill="none" stroke="black" points="125,-60.5 125,-83.5 "/>
<text text-anchor="middle" x="137" y="-68.3" font-family="Times,serif" font-size="14.00">F</text>
<polyline fill="none" stroke="black" points="149,-60.5 149,-83.5 "/>
<text text-anchor="middle" x="159" y="-68.3" font-family="Times,serif" font-size="14.00"> </text>
<polyline fill="none" stroke="black" points="169,-60.5 169,-83.5 "/>
<text text-anchor="middle" x="182" y="-68.3" font-family="Times,serif" font-size="14.00">K</text>
<polyline fill="none" stroke="black" points="195,-60.5 195,-83.5 "/>
<text text-anchor="middle" x="205" y="-68.3" font-family="Times,serif" font-size="14.00"> </text>
</g>
<!-- node0&#45;&gt;node1 -->
<g id="edge4" class="edge">
<title>node0:f0&#45;&gt;node1</title>
<path fill="none" stroke="black" d="M279,-132C240.93,-132 202.47,-107.46 179.96,-90.04"/>
<polygon fill="black" stroke="black" points="181.87,-87.08 171.88,-83.55 177.48,-92.54 181.87,-87.08"/>
</g>
<!-- node5 -->
<g id="node6" class="node">
<title>node5</title>
<polygon fill="none" stroke="black" points="391.5,-60.5 391.5,-83.5 456.5,-83.5 456.5,-60.5 391.5,-60.5"/>
<text text-anchor="middle" x="401.5" y="-68.3" font-family="Times,serif" font-size="14.00"> </text>
<polyline fill="none" stroke="black" points="411.5,-60.5 411.5,-83.5 "/>
<text text-anchor="middle" x="424" y="-68.3" font-family="Times,serif" font-size="14.00">T</text>
<polyline fill="none" stroke="black" points="436.5,-60.5 436.5,-83.5 "/>
<text text-anchor="middle" x="446.5" y="-68.3" font-family="Times,serif" font-size="14.00"> </text>
</g>
<!-- node0&#45;&gt;node5 -->
<g id="edge7" class="edge">
<title>node0:f1&#45;&gt;node5</title>
<path fill="none" stroke="black" d="M347,-132C373.82,-132 397.07,-109.17 410.81,-91.91"/>
<polygon fill="black" stroke="black" points="413.89,-93.64 417.1,-83.55 408.29,-89.44 413.89,-93.64"/>
</g>
<!-- node2 -->
<g id="node3" class="node">
<title>node2</title>
<polygon fill="none" stroke="black" points="0,-0.5 0,-23.5 66,-23.5 66,-0.5 0,-0.5"/>
<text text-anchor="middle" x="10" y="-8.3" font-family="Times,serif" font-size="14.00"> </text>
<polyline fill="none" stroke="black" points="20,-0.5 20,-23.5 "/>
<text text-anchor="middle" x="33" y="-8.3" font-family="Times,serif" font-size="14.00">C</text>
<polyline fill="none" stroke="black" points="46,-0.5 46,-23.5 "/>
<text text-anchor="middle" x="56" y="-8.3" font-family="Times,serif" font-size="14.00"> </text>
</g>
<!-- node1&#45;&gt;node2 -->
<g id="edge1" class="edge">
<title>node1:f0&#45;&gt;node2</title>
<path fill="none" stroke="black" d="M104,-72C78.48,-72 57.24,-49.17 44.82,-31.91"/>
<polygon fill="black" stroke="black" points="47.66,-29.87 39.16,-23.55 41.87,-33.79 47.66,-29.87"/>
</g>
<!-- node3 -->
<g id="node4" class="node">
<title>node3</title>
<polygon fill="none" stroke="black" points="84,-0.5 84,-23.5 150,-23.5 150,-0.5 84,-0.5"/>
<text text-anchor="middle" x="94" y="-8.3" font-family="Times,serif" font-size="14.00"> </text>
<polyline fill="none" stroke="black" points="104,-0.5 104,-23.5 "/>
<text text-anchor="middle" x="117" y="-8.3" font-family="Times,serif" font-size="14.00">H</text>
<polyline fill="none" stroke="black" points="130,-0.5 130,-23.5 "/>
<text text-anchor="middle" x="140" y="-8.3" font-family="Times,serif" font-size="14.00"> </text>
</g>
<!-- node1&#45;&gt;node3 -->
<g id="edge2" class="edge">
<title>node1:f1&#45;&gt;node3</title>
<path fill="none" stroke="black" d="M159,-60C159,-48.27 151.64,-38.12 143.08,-30.29"/>
<polygon fill="black" stroke="black" points="145.02,-27.36 135.06,-23.77 140.61,-32.79 145.02,-27.36"/>
</g>
<!-- node4 -->
<g id="node5" class="node">
<title>node4</title>
<polygon fill="none" stroke="black" points="168,-0.5 168,-23.5 328,-23.5 328,-0.5 168,-0.5"/>
<text text-anchor="middle" x="178" y="-8.3" font-family="Times,serif" font-size="14.00"> </text>
<polyline fill="none" stroke="black" points="188,-0.5 188,-23.5 "/>
<text text-anchor="middle" x="200.5" y="-8.3" font-family="Times,serif" font-size="14.00">L</text>
<polyline fill="none" stroke="black" points="213,-0.5 213,-23.5 "/>
<text text-anchor="middle" x="223" y="-8.3" font-family="Times,serif" font-size="14.00"> </text>
<polyline fill="none" stroke="black" points="233,-0.5 233,-23.5 "/>
<text text-anchor="middle" x="247.5" y="-8.3" font-family="Times,serif" font-size="14.00">M</text>
<polyline fill="none" stroke="black" points="262,-0.5 262,-23.5 "/>
<text text-anchor="middle" x="272" y="-8.3" font-family="Times,serif" font-size="14.00"> </text>
<polyline fill="none" stroke="black" points="282,-0.5 282,-23.5 "/>
<text text-anchor="middle" x="295" y="-8.3" font-family="Times,serif" font-size="14.00">N</text>
<polyline fill="none" stroke="black" points="308,-0.5 308,-23.5 "/>
<text text-anchor="middle" x="318" y="-8.3" font-family="Times,serif" font-size="14.00"> </text>
</g>
<!-- node1&#45;&gt;node4 -->
<g id="edge3" class="edge">
<title>node1:f2&#45;&gt;node4</title>
<path fill="none" stroke="black" d="M205,-60C205,-48.02 212.69,-37.77 221.57,-29.93"/>
<polygon fill="black" stroke="black" points="223.83,-32.61 229.51,-23.67 219.49,-27.11 223.83,-32.61"/>
</g>
<!-- node6 -->
<g id="node7" class="node">
<title>node6</title>
<polygon fill="none" stroke="black" points="346,-0.5 346,-23.5 456,-23.5 456,-0.5 346,-0.5"/>
<text text-anchor="middle" x="356" y="-8.3" font-family="Times,serif" font-size="14.00"> </text>
<polyline fill="none" stroke="black" points="366,-0.5 366,-23.5 "/>
<text text-anchor="middle" x="379" y="-8.3" font-family="Times,serif" font-size="14.00">R</text>
<polyline fill="none" stroke="black" points="392,-0.5 392,-23.5 "/>
<text text-anchor="middle" x="402" y="-8.3" font-family="Times,serif" font-size="14.00"> </text>
<polyline fill="none" stroke="black" points="412,-0.5 412,-23.5 "/>
<text text-anchor="middle" x="424" y="-8.3" font-family="Times,serif" font-size="14.00">S</text>
<polyline fill="none" stroke="black" points="436,-0.5 436,-23.5 "/>
<text text-anchor="middle" x="446" y="-8.3" font-family="Times,serif" font-size="14.00"> </text>
</g>
<!-- node5&#45;&gt;node6 -->
<g id="edge5" class="edge">
<title>node5:f0&#45;&gt;node6</title>
<path fill="none" stroke="black" d="M401,-60C401,-51.47 401,-42.08 401,-33.94"/>
<polygon fill="black" stroke="black" points="404.5,-33.83 401,-23.83 397.5,-33.83 404.5,-33.83"/>
</g>
<!-- node7 -->
<g id="node8" class="node">
<title>node7</title>
<polygon fill="none" stroke="black" points="474,-0.5 474,-23.5 590,-23.5 590,-0.5 474,-0.5"/>
<text text-anchor="middle" x="484" y="-8.3" font-family="Times,serif" font-size="14.00"> </text>
<polyline fill="none" stroke="black" points="494,-0.5 494,-23.5 "/>
<text text-anchor="middle" x="507" y="-8.3" font-family="Times,serif" font-size="14.00">V</text>
<polyline fill="none" stroke="black" points="520,-0.5 520,-23.5 "/>
<text text-anchor="middle" x="530" y="-8.3" font-family="Times,serif" font-size="14.00"> </text>
<polyline fill="none" stroke="black" points="540,-0.5 540,-23.5 "/>
<text text-anchor="middle" x="555" y="-8.3" font-family="Times,serif" font-size="14.00">W</text>
<polyline fill="none" stroke="black" points="570,-0.5 570,-23.5 "/>
<text text-anchor="middle" x="580" y="-8.3" font-family="Times,serif" font-size="14.00"> </text>
</g>
<!-- node5&#45;&gt;node7 -->
<g id="edge6" class="edge">
<title>node5:f1&#45;&gt;node7</title>
<path fill="none" stroke="black" d="M458,-72C484.16,-72 506.41,-49.17 519.49,-31.91"/>
<polygon fill="black" stroke="black" points="522.5,-33.72 525.47,-23.55 516.81,-29.65 522.5,-33.72"/>
</g>
</g>
</svg>
