<?xml version="1.0" encoding="UTF-8" standalone="no"?>
<!DOCTYPE svg PUBLIC "-//W3C//DTD SVG 1.1//EN"
 "http://www.w3.org/Graphics/SVG/1.1/DTD/svg11.dtd">
<!-- Generated by graphviz version 2.44.1 (20200629.0846)
 -->
<!-- Title: g Pages: 1 -->
<svg width="770pt" height="152pt"
 viewBox="0.00 0.00 770.00 152.00" xmlns="http://www.w3.org/2000/svg" xmlns:xlink="http://www.w3.org/1999/xlink">
<g id="graph0" class="graph" transform="scale(1 1) rotate(0) translate(4 148)">
<title>g</title>
<polygon fill="white" stroke="transparent" points="-4,4 -4,-148 766,-148 766,4 -4,4"/>
<!-- node0 -->
<g id="node1" class="node">
<title>node0</title>
<polygon fill="none" stroke="black" points="378,-120.5 378,-143.5 444,-143.5 444,-120.5 378,-120.5"/>
<text text-anchor="middle" x="388" y="-128.3" font-family="Times,serif" font-size="14.00"> </text>
<polyline fill="none" stroke="black" points="398,-120.5 398,-143.5 "/>
<text text-anchor="middle" x="411" y="-128.3" font-family="Times,serif" font-size="14.00">Q</text>
<polyline fill="none" stroke="black" points="424,-120.5 424,-143.5 "/>
<text text-anchor="middle" x="434" y="-128.3" font-family="Times,serif" font-size="14.00"> </text>
</g>
<!-- node1 -->
<g id="node2" class="node">
<title>node1</title>
<polygon fill="none" stroke="black" points="192.5,-60.5 192.5,-83.5 351.5,-83.5 351.5,-60.5 192.5,-60.5"/>
<text text-anchor="middle" x="202.5" y="-68.3" font-family="Times,serif" font-size="14.00"> </text>
<polyline fill="none" stroke="black" points="212.5,-60.5 212.5,-83.5 "/>
<text text-anchor="middle" x="224.5" y="-68.3" font-family="Times,serif" font-size="14.00">F</text>
<polyline fill="none" stroke="black" points="236.5,-60.5 236.5,-83.5 "/>
<text text-anchor="middle" x="246.5" y="-68.3" font-family="Times,serif" font-size="14.00"> </text>
<polyline fill="none" stroke="black" points="256.5,-60.5 256.5,-83.5 "/>
<text text-anchor="middle" x="269.5" y="-68.3" font-family="Times,serif" font-size="14.00">K</text>
<polyline fill="none" stroke="black" points="282.5,-60.5 282.5,-83.5 "/>
<text text-anchor="middle" x="292.5" y="-68.3" font-family="Times,serif" font-size="14.00"> </text>
<polyline fill="none" stroke="black" points="302.5,-60.5 302.5,-83.5 "/>
<text text-anchor="middle" x="317" y="-68.3" font-family="Times,serif" font-size="14.00">M</text>
<polyline fill="none" stroke="black" points="331.5,-60.5 331.5,-83.5 "/>
<text text-anchor="middle" x="341.5" y="-68.3" font-family="Times,serif" font-size="14.00"> </text>
</g>
<!-- node0&#45;&gt;node1 -->
<g id="edge5" class="edge">
<title>node0:f0&#45;&gt;node1</title>
<path fill="none" stroke="black" d="M377,-132C342.79,-132 309.41,-107.9 289.78,-90.5"/>
<polygon fill="black" stroke="black" points="291.97,-87.76 282.25,-83.55 287.22,-92.9 291.97,-87.76"/>
</g>
<!-- node6 -->
<g id="node7" class="node">
<title>node6</title>
<polygon fill="none" stroke="black" points="517.5,-60.5 517.5,-83.5 582.5,-83.5 582.5,-60.5 517.5,-60.5"/>
<text text-anchor="middle" x="527.5" y="-68.3" font-family="Times,serif" font-size="14.00"> </text>
<polyline fill="none" stroke="black" points="537.5,-60.5 537.5,-83.5 "/>
<text text-anchor="middle" x="550" y="-68.3" font-family="Times,serif" font-size="14.00">T</text>
<polyline fill="none" stroke="black" points="562.5,-60.5 562.5,-83.5 "/>
<text text-anchor="middle" x="572.5" y="-68.3" font-family="Times,serif" font-size="14.00"> </text>
</g>
<!-- node0&#45;&gt;node6 -->
<g id="edge8" class="edge">
<title>node0:f1&#45;&gt;node6</title>
<path fill="none" stroke="black" d="M445,-132C479.21,-132 512.59,-107.9 532.22,-90.5"/>
<polygon fill="black" stroke="black" points="534.78,-92.9 539.75,-83.55 530.03,-87.76 534.78,-92.9"/>
</g>
<!-- node2 -->
<g id="node3" class="node">
<title>node2</title>
<polygon fill="none" stroke="black" points="0,-0.5 0,-23.5 158,-23.5 158,-0.5 0,-0.5"/>
<text text-anchor="middle" x="10" y="-8.3" font-family="Times,serif" font-size="14.00"> </text>
<polyline fill="none" stroke="black" points="20,-0.5 20,-23.5 "/>
<text text-anchor="middle" x="33" y="-8.3" font-family="Times,serif" font-size="14.00">A</text>
<polyline fill="none" stroke="black" points="46,-0.5 46,-23.5 "/>
<text text-anchor="middle" x="56" y="-8.3" font-family="Times,serif" font-size="14.00"> </text>
<polyline fill="none" stroke="black" points="66,-0.5 66,-23.5 "/>
<text text-anchor="middle" x="79" y="-8.3" font-family="Times,serif" font-size="14.00">B</text>
<polyline fill="none" stroke="black" points="92,-0.5 92,-23.5 "/>
<text text-anchor="middle" x="102" y="-8.3" font-family="Times,serif" font-size="14.00"> </text>
<polyline fill="none" stroke="black" points="112,-0.5 112,-23.5 "/>
<text text-anchor="middle" x="125" y="-8.3" font-family="Times,serif" font-size="14.00">C</text>
<polyline fill="none" stroke="black" points="138,-0.5 138,-23.5 "/>
<text text-anchor="middle" x="148" y="-8.3" font-family="Times,serif" font-size="14.00"> </text>
</g>
<!-- node1&#45;&gt;node2 -->
<g id="edge1" class="edge">
<title>node1:f0&#45;&gt;node2</title>
<path fill="none" stroke="black" d="M191,-72C154.88,-72 118.97,-47.68 97.9,-30.27"/>
<polygon fill="black" stroke="black" points="99.93,-27.41 90.07,-23.55 95.37,-32.72 99.93,-27.41"/>
</g>
<!-- node3 -->
<g id="node4" class="node">
<title>node3</title>
<polygon fill="none" stroke="black" points="176,-0.5 176,-23.5 242,-23.5 242,-0.5 176,-0.5"/>
<text text-anchor="middle" x="186" y="-8.3" font-family="Times,serif" font-size="14.00"> </text>
<polyline fill="none" stroke="black" points="196,-0.5 196,-23.5 "/>
<text text-anchor="middle" x="209" y="-8.3" font-family="Times,serif" font-size="14.00">H</text>
<polyline fill="none" stroke="black" points="222,-0.5 222,-23.5 "/>
<text text-anchor="middle" x="232" y="-8.3" font-family="Times,serif" font-size="14.00"> </text>
</g>
<!-- node1&#45;&gt;node3 -->
<g id="edge2" class="edge">
<title>node1:f1&#45;&gt;node3</title>
<path fill="none" stroke="black" d="M246,-60C246,-48.78 239.41,-38.67 231.8,-30.72"/>
<polygon fill="black" stroke="black" points="233.76,-27.76 224.05,-23.53 229,-32.9 233.76,-27.76"/>
</g>
<!-- node4 -->
<g id="node5" class="node">
<title>node4</title>
<polygon fill="none" stroke="black" points="260.5,-0.5 260.5,-23.5 325.5,-23.5 325.5,-0.5 260.5,-0.5"/>
<text text-anchor="middle" x="270.5" y="-8.3" font-family="Times,serif" font-size="14.00"> </text>
<polyline fill="none" stroke="black" points="280.5,-0.5 280.5,-23.5 "/>
<text text-anchor="middle" x="293" y="-8.3" font-family="Times,serif" font-size="14.00">L</text>
<polyline fill="none" stroke="black" points="305.5,-0.5 305.5,-23.5 "/>
<text text-anchor="middle" x="315.5" y="-8.3" font-family="Times,serif" font-size="14.00"> </text>
</g>
<!-- node1&#45;&gt;node4 -->
<g id="edge3" class="edge">
<title>node1:f2&#45;&gt;node4</title>
<path fill="none" stroke="black" d="M293,-60C293,-51.47 293,-42.08 293,-33.94"/>
<polygon fill="black" stroke="black" points="296.5,-33.83 293,-23.83 289.5,-33.83 296.5,-33.83"/>
</g>
<!-- node5 -->
<g id="node6" class="node">
<title>node5</title>
<polygon fill="none" stroke="black" points="344,-0.5 344,-23.5 454,-23.5 454,-0.5 344,-0.5"/>
<text text-anchor="middle" x="354" y="-8.3" font-family="Times,serif" font-size="14.00"> </text>
<polyline fill="none" stroke="black" points="364,-0.5 364,-23.5 "/>
<text text-anchor="middle" x="377" y="-8.3" font-family="Times,serif" font-size="14.00">N</text>
<polyline fill="none" stroke="black" points="390,-0.5 390,-23.5 "/>
<text text-anchor="middle" x="400" y="-8.3" font-family="Times,serif" font-size="14.00"> </text>
<polyline fill="none" stroke="black" points="410,-0.5 410,-23.5 "/>
<text text-anchor="middle" x="422" y="-8.3" font-family="Times,serif" font-size="14.00">P</text>
<polyline fill="none" stroke="black" points="434,-0.5 434,-23.5 "/>
<text text-anchor="middle" x="444" y="-8.3" font-family="Times,serif" font-size="14.00"> </text>
</g>
<!-- node1&#45;&gt;node5 -->
<g id="edge4" class="edge">
<title>node1:f3&#45;&gt;node5</title>
<path fill="none" stroke="black" d="M342,-60C342,-46.61 351.48,-36.33 362.7,-28.84"/>
<polygon fill="black" stroke="black" points="364.66,-31.75 371.5,-23.66 361.11,-25.72 364.66,-31.75"/>
</g>
<!-- node7 -->
<g id="node8" class="node">
<title>node7</title>
<polygon fill="none" stroke="black" points="472,-0.5 472,-23.5 582,-23.5 582,-0.5 472,-0.5"/>
<text text-anchor="middle" x="482" y="-8.3" font-family="Times,serif" font-size="14.00"> </text>
<polyline fill="none" stroke="black" points="492,-0.5 492,-23.5 "/>
<text text-anchor="middle" x="505" y="-8.3" font-family="Times,serif" font-size="14.00">R</text>
<polyline fill="none" stroke="black" points="518,-0.5 518,-23.5 "/>
<text text-anchor="middle" x="528" y="-8.3" font-family="Times,serif" font-size="14.00"> </text>
<polyline fill="none" stroke="black" points="538,-0.5 538,-23.5 "/>
<text text-anchor="middle" x="550" y="-8.3" font-family="Times,serif" font-size="14.00">S</text>
<polyline fill="none" stroke="black" points="562,-0.5 562,-23.5 "/>
<text text-anchor="middle" x="572" y="-8.3" font-family="Times,serif" font-size="14.00"> </text>
</g>
<!-- node6&#45;&gt;node7 -->
<g id="edge6" class="edge">
<title>node6:f0&#45;&gt;node7</title>
<path fill="none" stroke="black" d="M527,-60C527,-51.47 527,-42.08 527,-33.94"/>
<polygon fill="black" stroke="black" points="530.5,-33.83 527,-23.83 523.5,-33.83 530.5,-33.83"/>
</g>
<!-- node8 -->
<g id="node9" class="node">
<title>node8</title>
<polygon fill="none" stroke="black" points="600,-0.5 600,-23.5 762,-23.5 762,-0.5 600,-0.5"/>
<text text-anchor="middle" x="610" y="-8.3" font-family="Times,serif" font-size="14.00"> </text>
<polyline fill="none" stroke="black" points="620,-0.5 620,-23.5 "/>
<text text-anchor="middle" x="633" y="-8.3" font-family="Times,serif" font-size="14.00">V</text>
<polyline fill="none" stroke="black" points="646,-0.5 646,-23.5 "/>
<text text-anchor="middle" x="656" y="-8.3" font-family="Times,serif" font-size="14.00"> </text>
<polyline fill="none" stroke="black" points="666,-0.5 666,-23.5 "/>
<text text-anchor="middle" x="681" y="-8.3" font-family="Times,serif" font-size="14.00">W</text>
<polyline fill="none" stroke="black" points="696,-0.5 696,-23.5 "/>
<text text-anchor="middle" x="706" y="-8.3" font-family="Times,serif" font-size="14.00"> </text>
<polyline fill="none" stroke="black" points="716,-0.5 716,-23.5 "/>
<text text-anchor="middle" x="729" y="-8.3" font-family="Times,serif" font-size="14.00">X</text>
<polyline fill="none" stroke="black" points="742,-0.5 742,-23.5 "/>
<text text-anchor="middle" x="752" y="-8.3" font-family="Times,serif" font-size="14.00"> </text>
</g>
<!-- node6&#45;&gt;node8 -->
<g id="edge7" class="edge">
<title>node6:f1&#45;&gt;node8</title>
<path fill="none" stroke="black" d="M584,-72C615.96,-72 646.35,-48.33 664.34,-30.97"/>
<polygon fill="black" stroke="black" points="667.14,-33.12 671.69,-23.55 662.17,-28.19 667.14,-33.12"/>
</g>
</g>
</svg>
