<?xml version="1.0" encoding="UTF-8" standalone="no"?>
<!DOCTYPE svg PUBLIC "-//W3C//DTD SVG 1.1//EN"
 "http://www.w3.org/Graphics/SVG/1.1/DTD/svg11.dtd">
<!-- Generated by graphviz version 2.44.1 (20200629.0846)
 -->
<!-- Title: g Pages: 1 -->
<svg width="804pt" height="152pt"
 viewBox="0.00 0.00 804.00 152.00" xmlns="http://www.w3.org/2000/svg" xmlns:xlink="http://www.w3.org/1999/xlink">
<g id="graph0" class="graph" transform="scale(1 1) rotate(0) translate(4 148)">
<title>g</title>
<polygon fill="white" stroke="transparent" points="-4,4 -4,-148 800,-148 800,4 -4,4"/>
<!-- node0 -->
<g id="node1" class="node">
<title>node0</title>
<polygon fill="none" stroke="black" points="390,-120.5 390,-143.5 456,-143.5 456,-120.5 390,-120.5"/>
<text text-anchor="middle" x="400" y="-128.3" font-family="Times,serif" font-size="14.00"> </text>
<polyline fill="none" stroke="black" points="410,-120.5 410,-143.5 "/>
<text text-anchor="middle" x="423" y="-128.3" font-family="Times,serif" font-size="14.00">Q</text>
<polyline fill="none" stroke="black" points="436,-120.5 436,-143.5 "/>
<text text-anchor="middle" x="446" y="-128.3" font-family="Times,serif" font-size="14.00"> </text>
</g>
<!-- node1 -->
<g id="node2" class="node">
<title>node1</title>
<polygon fill="none" stroke="black" points="192.5,-60.5 192.5,-83.5 351.5,-83.5 351.5,-60.5 192.5,-60.5"/>
<text text-anchor="middle" x="202.5" y="-68.3" font-family="Times,serif" font-size="14.00"> </text>
<polyline fill="none" stroke="black" points="212.5,-60.5 212.5,-83.5 "/>
<text text-anchor="middle" x="224.5" y="-68.3" font-family="Times,serif" font-size="14.00">F</text>
<polyline fill="none" stroke="black" points="236.5,-60.5 236.5,-83.5 "/>
<text text-anchor="middle" x="246.5" y="-68.3" font-family="Times,serif" font-size="14.00"> </text>
<polyline fill="none" stroke="black" points="256.5,-60.5 256.5,-83.5 "/>
<text text-anchor="middle" x="269.5" y="-68.3" font-family="Times,serif" font-size="14.00">K</text>
<polyline fill="none" stroke="black" points="282.5,-60.5 282.5,-83.5 "/>
<text text-anchor="middle" x="292.5" y="-68.3" font-family="Times,serif" font-size="14.00"> </text>
<polyline fill="none" stroke="black" points="302.5,-60.5 302.5,-83.5 "/>
<text text-anchor="middle" x="317" y="-68.3" font-family="Times,serif" font-size="14.00">M</text>
<polyline fill="none" stroke="black" points="331.5,-60.5 331.5,-83.5 "/>
<text text-anchor="middle" x="341.5" y="-68.3" font-family="Times,serif" font-size="14.00"> </text>
</g>
<!-- node0&#45;&gt;node1 -->
<g id="edge5" class="edge">
<title>node0:f0&#45;&gt;node1</title>
<path fill="none" stroke="black" d="M389,-132C351.44,-132 313.67,-107.46 291.58,-90.04"/>
<polygon fill="black" stroke="black" points="293.6,-87.17 283.65,-83.55 289.17,-92.59 293.6,-87.17"/>
</g>
<!-- node6 -->
<g id="node7" class="node">
<title>node6</title>
<polygon fill="none" stroke="black" points="547.5,-60.5 547.5,-83.5 662.5,-83.5 662.5,-60.5 547.5,-60.5"/>
<text text-anchor="middle" x="557.5" y="-68.3" font-family="Times,serif" font-size="14.00"> </text>
<polyline fill="none" stroke="black" points="567.5,-60.5 567.5,-83.5 "/>
<text text-anchor="middle" x="580" y="-68.3" font-family="Times,serif" font-size="14.00">T</text>
<polyline fill="none" stroke="black" points="592.5,-60.5 592.5,-83.5 "/>
<text text-anchor="middle" x="602.5" y="-68.3" font-family="Times,serif" font-size="14.00"> </text>
<polyline fill="none" stroke="black" points="612.5,-60.5 612.5,-83.5 "/>
<text text-anchor="middle" x="627.5" y="-68.3" font-family="Times,serif" font-size="14.00">W</text>
<polyline fill="none" stroke="black" points="642.5,-60.5 642.5,-83.5 "/>
<text text-anchor="middle" x="652.5" y="-68.3" font-family="Times,serif" font-size="14.00"> </text>
</g>
<!-- node0&#45;&gt;node6 -->
<g id="edge9" class="edge">
<title>node0:f1&#45;&gt;node6</title>
<path fill="none" stroke="black" d="M457,-132C503.47,-132 552.69,-106.59 581.04,-89.12"/>
<polygon fill="black" stroke="black" points="583.25,-91.86 589.81,-83.55 579.5,-85.95 583.25,-91.86"/>
</g>
<!-- node2 -->
<g id="node3" class="node">
<title>node2</title>
<polygon fill="none" stroke="black" points="0,-0.5 0,-23.5 158,-23.5 158,-0.5 0,-0.5"/>
<text text-anchor="middle" x="10" y="-8.3" font-family="Times,serif" font-size="14.00"> </text>
<polyline fill="none" stroke="black" points="20,-0.5 20,-23.5 "/>
<text text-anchor="middle" x="33" y="-8.3" font-family="Times,serif" font-size="14.00">A</text>
<polyline fill="none" stroke="black" points="46,-0.5 46,-23.5 "/>
<text text-anchor="middle" x="56" y="-8.3" font-family="Times,serif" font-size="14.00"> </text>
<polyline fill="none" stroke="black" points="66,-0.5 66,-23.5 "/>
<text text-anchor="middle" x="79" y="-8.3" font-family="Times,serif" font-size="14.00">B</text>
<polyline fill="none" stroke="black" points="92,-0.5 92,-23.5 "/>
<text text-anchor="middle" x="102" y="-8.3" font-family="Times,serif" font-size="14.00"> </text>
<polyline fill="none" stroke="black" points="112,-0.5 112,-23.5 "/>
<text text-anchor="middle" x="125" y="-8.3" font-family="Times,serif" font-size="14.00">C</text>
<polyline fill="none" stroke="black" points="138,-0.5 138,-23.5 "/>
<text text-anchor="middle" x="148" y="-8.3" font-family="Times,serif" font-size="14.00"> </text>
</g>
<!-- node1&#45;&gt;node2 -->
<g id="edge1" class="edge">
<title>node1:f0&#45;&gt;node2</title>
<path fill="none" stroke="black" d="M191,-72C154.88,-72 118.97,-47.68 97.9,-30.27"/>
<polygon fill="black" stroke="black" points="99.93,-27.41 90.07,-23.55 95.37,-32.72 99.93,-27.41"/>
</g>
<!-- node3 -->
<g id="node4" class="node">
<title>node3</title>
<polygon fill="none" stroke="black" points="176,-0.5 176,-23.5 242,-23.5 242,-0.5 176,-0.5"/>
<text text-anchor="middle" x="186" y="-8.3" font-family="Times,serif" font-size="14.00"> </text>
<polyline fill="none" stroke="black" points="196,-0.5 196,-23.5 "/>
<text text-anchor="middle" x="209" y="-8.3" font-family="Times,serif" font-size="14.00">H</text>
<polyline fill="none" stroke="black" points="222,-0.5 222,-23.5 "/>
<text text-anchor="middle" x="232" y="-8.3" font-family="Times,serif" font-size="14.00"> </text>
</g>
<!-- node1&#45;&gt;node3 -->
<g id="edge2" class="edge">
<title>node1:f1&#45;&gt;node3</title>
<path fill="none" stroke="black" d="M246,-60C246,-48.78 239.41,-38.67 231.8,-30.72"/>
<polygon fill="black" stroke="black" points="233.76,-27.76 224.05,-23.53 229,-32.9 233.76,-27.76"/>
</g>
<!-- node4 -->
<g id="node5" class="node">
<title>node4</title>
<polygon fill="none" stroke="black" points="260.5,-0.5 260.5,-23.5 325.5,-23.5 325.5,-0.5 260.5,-0.5"/>
<text text-anchor="middle" x="270.5" y="-8.3" font-family="Times,serif" font-size="14.00"> </text>
<polyline fill="none" stroke="black" points="280.5,-0.5 280.5,-23.5 "/>
<text text-anchor="middle" x="293" y="-8.3" font-family="Times,serif" font-size="14.00">L</text>
<polyline fill="none" stroke="black" points="305.5,-0.5 305.5,-23.5 "/>
<text text-anchor="middle" x="315.5" y="-8.3" font-family="Times,serif" font-size="14.00"> </text>
</g>
<!-- node1&#45;&gt;node4 -->
<g id="edge3" class="edge">
<title>node1:f2&#45;&gt;node4</title>
<path fill="none" stroke="black" d="M293,-60C293,-51.47 293,-42.08 293,-33.94"/>
<polygon fill="black" stroke="black" points="296.5,-33.83 293,-23.83 289.5,-33.83 296.5,-33.83"/>
</g>
<!-- node5 -->
<g id="node6" class="node">
<title>node5</title>
<polygon fill="none" stroke="black" points="344,-0.5 344,-23.5 454,-23.5 454,-0.5 344,-0.5"/>
<text text-anchor="middle" x="354" y="-8.3" font-family="Times,serif" font-size="14.00"> </text>
<polyline fill="none" stroke="black" points="364,-0.5 364,-23.5 "/>
<text text-anchor="middle" x="377" y="-8.3" font-family="Times,serif" font-size="14.00">N</text>
<polyline fill="none" stroke="black" points="390,-0.5 390,-23.5 "/>
<text text-anchor="middle" x="400" y="-8.3" font-family="Times,serif" font-size="14.00"> </text>
<polyline fill="none" stroke="black" points="410,-0.5 410,-23.5 "/>
<text text-anchor="middle" x="422" y="-8.3" font-family="Times,serif" font-size="14.00">P</text>
<polyline fill="none" stroke="black" points="434,-0.5 434,-23.5 "/>
<text text-anchor="middle" x="444" y="-8.3" font-family="Times,serif" font-size="14.00"> </text>
</g>
<!-- node1&#45;&gt;node5 -->
<g id="edge4" class="edge">
<title>node1:f3&#45;&gt;node5</title>
<path fill="none" stroke="black" d="M342,-60C342,-46.61 351.48,-36.33 362.7,-28.84"/>
<polygon fill="black" stroke="black" points="364.66,-31.75 371.5,-23.66 361.11,-25.72 364.66,-31.75"/>
</g>
<!-- node7 -->
<g id="node8" class="node">
<title>node7</title>
<polygon fill="none" stroke="black" points="472,-0.5 472,-23.5 582,-23.5 582,-0.5 472,-0.5"/>
<text text-anchor="middle" x="482" y="-8.3" font-family="Times,serif" font-size="14.00"> </text>
<polyline fill="none" stroke="black" points="492,-0.5 492,-23.5 "/>
<text text-anchor="middle" x="505" y="-8.3" font-family="Times,serif" font-size="14.00">R</text>
<polyline fill="none" stroke="black" points="518,-0.5 518,-23.5 "/>
<text text-anchor="middle" x="528" y="-8.3" font-family="Times,serif" font-size="14.00"> </text>
<polyline fill="none" stroke="black" points="538,-0.5 538,-23.5 "/>
<text text-anchor="middle" x="550" y="-8.3" font-family="Times,serif" font-size="14.00">S</text>
<polyline fill="none" stroke="black" points="562,-0.5 562,-23.5 "/>
<text text-anchor="middle" x="572" y="-8.3" font-family="Times,serif" font-size="14.00"> </text>
</g>
<!-- node6&#45;&gt;node7 -->
<g id="edge6" class="edge">
<title>node6:f0&#45;&gt;node7</title>
<path fill="none" stroke="black" d="M557,-60C557,-49.51 551.63,-39.48 545.43,-31.4"/>
<polygon fill="black" stroke="black" points="548.03,-29.06 538.86,-23.75 542.71,-33.62 548.03,-29.06"/>
</g>
<!-- node8 -->
<g id="node9" class="node">
<title>node8</title>
<polygon fill="none" stroke="black" points="600,-0.5 600,-23.5 666,-23.5 666,-0.5 600,-0.5"/>
<text text-anchor="middle" x="610" y="-8.3" font-family="Times,serif" font-size="14.00"> </text>
<polyline fill="none" stroke="black" points="620,-0.5 620,-23.5 "/>
<text text-anchor="middle" x="633" y="-8.3" font-family="Times,serif" font-size="14.00">V</text>
<polyline fill="none" stroke="black" points="646,-0.5 646,-23.5 "/>
<text text-anchor="middle" x="656" y="-8.3" font-family="Times,serif" font-size="14.00"> </text>
</g>
<!-- node6&#45;&gt;node8 -->
<g id="edge7" class="edge">
<title>node6:f1&#45;&gt;node8</title>
<path fill="none" stroke="black" d="M602,-60C602,-49.41 607.55,-39.36 613.96,-31.3"/>
<polygon fill="black" stroke="black" points="616.71,-33.47 620.75,-23.67 611.49,-28.81 616.71,-33.47"/>
</g>
<!-- node9 -->
<g id="node10" class="node">
<title>node9</title>
<polygon fill="none" stroke="black" points="684,-0.5 684,-23.5 796,-23.5 796,-0.5 684,-0.5"/>
<text text-anchor="middle" x="694" y="-8.3" font-family="Times,serif" font-size="14.00"> </text>
<polyline fill="none" stroke="black" points="704,-0.5 704,-23.5 "/>
<text text-anchor="middle" x="717" y="-8.3" font-family="Times,serif" font-size="14.00">X</text>
<polyline fill="none" stroke="black" points="730,-0.5 730,-23.5 "/>
<text text-anchor="middle" x="740" y="-8.3" font-family="Times,serif" font-size="14.00"> </text>
<polyline fill="none" stroke="black" points="750,-0.5 750,-23.5 "/>
<text text-anchor="middle" x="763" y="-8.3" font-family="Times,serif" font-size="14.00">Y</text>
<polyline fill="none" stroke="black" points="776,-0.5 776,-23.5 "/>
<text text-anchor="middle" x="786" y="-8.3" font-family="Times,serif" font-size="14.00"> </text>
</g>
<!-- node6&#45;&gt;node9 -->
<g id="edge8" class="edge">
<title>node6:f2&#45;&gt;node9</title>
<path fill="none" stroke="black" d="M664,-72C690.6,-72 713.51,-49.17 727.04,-31.91"/>
<polygon fill="black" stroke="black" points="730.09,-33.67 733.22,-23.55 724.46,-29.51 730.09,-33.67"/>
</g>
</g>
</svg>
