<?xml version="1.0" encoding="UTF-8" standalone="no"?>
<!DOCTYPE svg PUBLIC "-//W3C//DTD SVG 1.1//EN"
 "http://www.w3.org/Graphics/SVG/1.1/DTD/svg11.dtd">
<!-- Generated by graphviz version 2.44.1 (20200629.0846)
 -->
<!-- Title: g Pages: 1 -->
<svg width="934pt" height="152pt"
 viewBox="0.00 0.00 933.50 152.00" xmlns="http://www.w3.org/2000/svg" xmlns:xlink="http://www.w3.org/1999/xlink">
<g id="graph0" class="graph" transform="scale(1 1) rotate(0) translate(4 148)">
<title>g</title>
<polygon fill="white" stroke="transparent" points="-4,4 -4,-148 929.5,-148 929.5,4 -4,4"/>
<!-- node0 -->
<g id="node1" class="node">
<title>node0</title>
<polygon fill="none" stroke="black" points="374,-120.5 374,-143.5 486,-143.5 486,-120.5 374,-120.5"/>
<text text-anchor="middle" x="384" y="-128.3" font-family="Times,serif" font-size="14.00"> </text>
<polyline fill="none" stroke="black" points="394,-120.5 394,-143.5 "/>
<text text-anchor="middle" x="407" y="-128.3" font-family="Times,serif" font-size="14.00">K</text>
<polyline fill="none" stroke="black" points="420,-120.5 420,-143.5 "/>
<text text-anchor="middle" x="430" y="-128.3" font-family="Times,serif" font-size="14.00"> </text>
<polyline fill="none" stroke="black" points="440,-120.5 440,-143.5 "/>
<text text-anchor="middle" x="453" y="-128.3" font-family="Times,serif" font-size="14.00">Q</text>
<polyline fill="none" stroke="black" points="466,-120.5 466,-143.5 "/>
<text text-anchor="middle" x="476" y="-128.3" font-family="Times,serif" font-size="14.00"> </text>
</g>
<!-- node1 -->
<g id="node2" class="node">
<title>node1</title>
<polygon fill="none" stroke="black" points="150,-60.5 150,-83.5 260,-83.5 260,-60.5 150,-60.5"/>
<text text-anchor="middle" x="160" y="-68.3" font-family="Times,serif" font-size="14.00"> </text>
<polyline fill="none" stroke="black" points="170,-60.5 170,-83.5 "/>
<text text-anchor="middle" x="183" y="-68.3" font-family="Times,serif" font-size="14.00">B</text>
<polyline fill="none" stroke="black" points="196,-60.5 196,-83.5 "/>
<text text-anchor="middle" x="206" y="-68.3" font-family="Times,serif" font-size="14.00"> </text>
<polyline fill="none" stroke="black" points="216,-60.5 216,-83.5 "/>
<text text-anchor="middle" x="228" y="-68.3" font-family="Times,serif" font-size="14.00">F</text>
<polyline fill="none" stroke="black" points="240,-60.5 240,-83.5 "/>
<text text-anchor="middle" x="250" y="-68.3" font-family="Times,serif" font-size="14.00"> </text>
</g>
<!-- node0&#45;&gt;node1 -->
<g id="edge4" class="edge">
<title>node0:f0&#45;&gt;node1</title>
<path fill="none" stroke="black" d="M373,-132C320.39,-132 263.47,-105.92 231.23,-88.44"/>
<polygon fill="black" stroke="black" points="232.88,-85.35 222.44,-83.55 229.48,-91.47 232.88,-85.35"/>
</g>
<!-- node5 -->
<g id="node6" class="node">
<title>node5</title>
<polygon fill="none" stroke="black" points="395.5,-60.5 395.5,-83.5 464.5,-83.5 464.5,-60.5 395.5,-60.5"/>
<text text-anchor="middle" x="405.5" y="-68.3" font-family="Times,serif" font-size="14.00"> </text>
<polyline fill="none" stroke="black" points="415.5,-60.5 415.5,-83.5 "/>
<text text-anchor="middle" x="430" y="-68.3" font-family="Times,serif" font-size="14.00">M</text>
<polyline fill="none" stroke="black" points="444.5,-60.5 444.5,-83.5 "/>
<text text-anchor="middle" x="454.5" y="-68.3" font-family="Times,serif" font-size="14.00"> </text>
</g>
<!-- node0&#45;&gt;node5 -->
<g id="edge7" class="edge">
<title>node0:f1&#45;&gt;node5</title>
<path fill="none" stroke="black" d="M430,-120C430,-111.47 430,-102.08 430,-93.94"/>
<polygon fill="black" stroke="black" points="433.5,-93.83 430,-83.83 426.5,-93.83 433.5,-93.83"/>
</g>
<!-- node8 -->
<g id="node9" class="node">
<title>node8</title>
<polygon fill="none" stroke="black" points="631.5,-60.5 631.5,-83.5 746.5,-83.5 746.5,-60.5 631.5,-60.5"/>
<text text-anchor="middle" x="641.5" y="-68.3" font-family="Times,serif" font-size="14.00"> </text>
<polyline fill="none" stroke="black" points="651.5,-60.5 651.5,-83.5 "/>
<text text-anchor="middle" x="664" y="-68.3" font-family="Times,serif" font-size="14.00">T</text>
<polyline fill="none" stroke="black" points="676.5,-60.5 676.5,-83.5 "/>
<text text-anchor="middle" x="686.5" y="-68.3" font-family="Times,serif" font-size="14.00"> </text>
<polyline fill="none" stroke="black" points="696.5,-60.5 696.5,-83.5 "/>
<text text-anchor="middle" x="711.5" y="-68.3" font-family="Times,serif" font-size="14.00">W</text>
<polyline fill="none" stroke="black" points="726.5,-60.5 726.5,-83.5 "/>
<text text-anchor="middle" x="736.5" y="-68.3" font-family="Times,serif" font-size="14.00"> </text>
</g>
<!-- node0&#45;&gt;node8 -->
<g id="edge11" class="edge">
<title>node0:f2&#45;&gt;node8</title>
<path fill="none" stroke="black" d="M487,-132C549.98,-132 619.74,-105.25 658.59,-87.77"/>
<polygon fill="black" stroke="black" points="660.15,-90.9 667.78,-83.55 657.23,-84.54 660.15,-90.9"/>
</g>
<!-- node2 -->
<g id="node3" class="node">
<title>node2</title>
<polygon fill="none" stroke="black" points="0,-0.5 0,-23.5 66,-23.5 66,-0.5 0,-0.5"/>
<text text-anchor="middle" x="10" y="-8.3" font-family="Times,serif" font-size="14.00"> </text>
<polyline fill="none" stroke="black" points="20,-0.5 20,-23.5 "/>
<text text-anchor="middle" x="33" y="-8.3" font-family="Times,serif" font-size="14.00">A</text>
<polyline fill="none" stroke="black" points="46,-0.5 46,-23.5 "/>
<text text-anchor="middle" x="56" y="-8.3" font-family="Times,serif" font-size="14.00"> </text>
</g>
<!-- node1&#45;&gt;node2 -->
<g id="edge1" class="edge">
<title>node1:f0&#45;&gt;node2</title>
<path fill="none" stroke="black" d="M149,-72C111.7,-72 74.27,-47.46 52.39,-30.04"/>
<polygon fill="black" stroke="black" points="54.47,-27.22 44.53,-23.55 50.01,-32.62 54.47,-27.22"/>
</g>
<!-- node3 -->
<g id="node4" class="node">
<title>node3</title>
<polygon fill="none" stroke="black" points="84.5,-0.5 84.5,-23.5 241.5,-23.5 241.5,-0.5 84.5,-0.5"/>
<text text-anchor="middle" x="94.5" y="-8.3" font-family="Times,serif" font-size="14.00"> </text>
<polyline fill="none" stroke="black" points="104.5,-0.5 104.5,-23.5 "/>
<text text-anchor="middle" x="117.5" y="-8.3" font-family="Times,serif" font-size="14.00">C</text>
<polyline fill="none" stroke="black" points="130.5,-0.5 130.5,-23.5 "/>
<text text-anchor="middle" x="140.5" y="-8.3" font-family="Times,serif" font-size="14.00"> </text>
<polyline fill="none" stroke="black" points="150.5,-0.5 150.5,-23.5 "/>
<text text-anchor="middle" x="163.5" y="-8.3" font-family="Times,serif" font-size="14.00">D</text>
<polyline fill="none" stroke="black" points="176.5,-0.5 176.5,-23.5 "/>
<text text-anchor="middle" x="186.5" y="-8.3" font-family="Times,serif" font-size="14.00"> </text>
<polyline fill="none" stroke="black" points="196.5,-0.5 196.5,-23.5 "/>
<text text-anchor="middle" x="209" y="-8.3" font-family="Times,serif" font-size="14.00">E</text>
<polyline fill="none" stroke="black" points="221.5,-0.5 221.5,-23.5 "/>
<text text-anchor="middle" x="231.5" y="-8.3" font-family="Times,serif" font-size="14.00"> </text>
</g>
<!-- node1&#45;&gt;node3 -->
<g id="edge2" class="edge">
<title>node1:f1&#45;&gt;node3</title>
<path fill="none" stroke="black" d="M206,-60C206,-48.02 198.31,-37.77 189.43,-29.93"/>
<polygon fill="black" stroke="black" points="191.51,-27.11 181.49,-23.67 187.17,-32.61 191.51,-27.11"/>
</g>
<!-- node4 -->
<g id="node5" class="node">
<title>node4</title>
<polygon fill="none" stroke="black" points="260,-0.5 260,-23.5 326,-23.5 326,-0.5 260,-0.5"/>
<text text-anchor="middle" x="270" y="-8.3" font-family="Times,serif" font-size="14.00"> </text>
<polyline fill="none" stroke="black" points="280,-0.5 280,-23.5 "/>
<text text-anchor="middle" x="293" y="-8.3" font-family="Times,serif" font-size="14.00">H</text>
<polyline fill="none" stroke="black" points="306,-0.5 306,-23.5 "/>
<text text-anchor="middle" x="316" y="-8.3" font-family="Times,serif" font-size="14.00"> </text>
</g>
<!-- node1&#45;&gt;node4 -->
<g id="edge3" class="edge">
<title>node1:f2&#45;&gt;node4</title>
<path fill="none" stroke="black" d="M250,-60C250,-48.02 257.69,-37.77 266.57,-29.93"/>
<polygon fill="black" stroke="black" points="268.83,-32.61 274.51,-23.67 264.49,-27.11 268.83,-32.61"/>
</g>
<!-- node6 -->
<g id="node7" class="node">
<title>node6</title>
<polygon fill="none" stroke="black" points="344.5,-0.5 344.5,-23.5 409.5,-23.5 409.5,-0.5 344.5,-0.5"/>
<text text-anchor="middle" x="354.5" y="-8.3" font-family="Times,serif" font-size="14.00"> </text>
<polyline fill="none" stroke="black" points="364.5,-0.5 364.5,-23.5 "/>
<text text-anchor="middle" x="377" y="-8.3" font-family="Times,serif" font-size="14.00">L</text>
<polyline fill="none" stroke="black" points="389.5,-0.5 389.5,-23.5 "/>
<text text-anchor="middle" x="399.5" y="-8.3" font-family="Times,serif" font-size="14.00"> </text>
</g>
<!-- node5&#45;&gt;node6 -->
<g id="edge5" class="edge">
<title>node5:f0&#45;&gt;node6</title>
<path fill="none" stroke="black" d="M405,-60C405,-49.68 399.95,-39.65 394.14,-31.52"/>
<polygon fill="black" stroke="black" points="396.73,-29.15 387.75,-23.53 391.26,-33.53 396.73,-29.15"/>
</g>
<!-- node7 -->
<g id="node8" class="node">
<title>node7</title>
<polygon fill="none" stroke="black" points="428,-0.5 428,-23.5 538,-23.5 538,-0.5 428,-0.5"/>
<text text-anchor="middle" x="438" y="-8.3" font-family="Times,serif" font-size="14.00"> </text>
<polyline fill="none" stroke="black" points="448,-0.5 448,-23.5 "/>
<text text-anchor="middle" x="461" y="-8.3" font-family="Times,serif" font-size="14.00">N</text>
<polyline fill="none" stroke="black" points="474,-0.5 474,-23.5 "/>
<text text-anchor="middle" x="484" y="-8.3" font-family="Times,serif" font-size="14.00"> </text>
<polyline fill="none" stroke="black" points="494,-0.5 494,-23.5 "/>
<text text-anchor="middle" x="506" y="-8.3" font-family="Times,serif" font-size="14.00">P</text>
<polyline fill="none" stroke="black" points="518,-0.5 518,-23.5 "/>
<text text-anchor="middle" x="528" y="-8.3" font-family="Times,serif" font-size="14.00"> </text>
</g>
<!-- node5&#45;&gt;node7 -->
<g id="edge6" class="edge">
<title>node5:f1&#45;&gt;node7</title>
<path fill="none" stroke="black" d="M455,-60C455,-49.68 460.05,-39.65 465.86,-31.52"/>
<polygon fill="black" stroke="black" points="468.74,-33.53 472.25,-23.53 463.27,-29.15 468.74,-33.53"/>
</g>
<!-- node9 -->
<g id="node10" class="node">
<title>node9</title>
<polygon fill="none" stroke="black" points="556,-0.5 556,-23.5 666,-23.5 666,-0.5 556,-0.5"/>
<text text-anchor="middle" x="566" y="-8.3" font-family="Times,serif" font-size="14.00"> </text>
<polyline fill="none" stroke="black" points="576,-0.5 576,-23.5 "/>
<text text-anchor="middle" x="589" y="-8.3" font-family="Times,serif" font-size="14.00">R</text>
<polyline fill="none" stroke="black" points="602,-0.5 602,-23.5 "/>
<text text-anchor="middle" x="612" y="-8.3" font-family="Times,serif" font-size="14.00"> </text>
<polyline fill="none" stroke="black" points="622,-0.5 622,-23.5 "/>
<text text-anchor="middle" x="634" y="-8.3" font-family="Times,serif" font-size="14.00">S</text>
<polyline fill="none" stroke="black" points="646,-0.5 646,-23.5 "/>
<text text-anchor="middle" x="656" y="-8.3" font-family="Times,serif" font-size="14.00"> </text>
</g>
<!-- node8&#45;&gt;node9 -->
<g id="edge8" class="edge">
<title>node8:f0&#45;&gt;node9</title>
<path fill="none" stroke="black" d="M641,-60C641,-49.51 635.63,-39.48 629.43,-31.4"/>
<polygon fill="black" stroke="black" points="632.03,-29.06 622.86,-23.75 626.71,-33.62 632.03,-29.06"/>
</g>
<!-- node10 -->
<g id="node11" class="node">
<title>node10</title>
<polygon fill="none" stroke="black" points="684,-0.5 684,-23.5 750,-23.5 750,-0.5 684,-0.5"/>
<text text-anchor="middle" x="694" y="-8.3" font-family="Times,serif" font-size="14.00"> </text>
<polyline fill="none" stroke="black" points="704,-0.5 704,-23.5 "/>
<text text-anchor="middle" x="717" y="-8.3" font-family="Times,serif" font-size="14.00">V</text>
<polyline fill="none" stroke="black" points="730,-0.5 730,-23.5 "/>
<text text-anchor="middle" x="740" y="-8.3" font-family="Times,serif" font-size="14.00"> </text>
</g>
<!-- node8&#45;&gt;node10 -->
<g id="edge9" class="edge">
<title>node8:f1&#45;&gt;node10</title>
<path fill="none" stroke="black" d="M686,-60C686,-49.41 691.55,-39.36 697.96,-31.3"/>
<polygon fill="black" stroke="black" points="700.71,-33.47 704.75,-23.67 695.49,-28.81 700.71,-33.47"/>
</g>
<!-- node11 -->
<g id="node12" class="node">
<title>node11</title>
<polygon fill="none" stroke="black" points="768.5,-0.5 768.5,-23.5 925.5,-23.5 925.5,-0.5 768.5,-0.5"/>
<text text-anchor="middle" x="778.5" y="-8.3" font-family="Times,serif" font-size="14.00"> </text>
<polyline fill="none" stroke="black" points="788.5,-0.5 788.5,-23.5 "/>
<text text-anchor="middle" x="801.5" y="-8.3" font-family="Times,serif" font-size="14.00">X</text>
<polyline fill="none" stroke="black" points="814.5,-0.5 814.5,-23.5 "/>
<text text-anchor="middle" x="824.5" y="-8.3" font-family="Times,serif" font-size="14.00"> </text>
<polyline fill="none" stroke="black" points="834.5,-0.5 834.5,-23.5 "/>
<text text-anchor="middle" x="847.5" y="-8.3" font-family="Times,serif" font-size="14.00">Y</text>
<polyline fill="none" stroke="black" points="860.5,-0.5 860.5,-23.5 "/>
<text text-anchor="middle" x="870.5" y="-8.3" font-family="Times,serif" font-size="14.00"> </text>
<polyline fill="none" stroke="black" points="880.5,-0.5 880.5,-23.5 "/>
<text text-anchor="middle" x="893" y="-8.3" font-family="Times,serif" font-size="14.00">Z</text>
<polyline fill="none" stroke="black" points="905.5,-0.5 905.5,-23.5 "/>
<text text-anchor="middle" x="915.5" y="-8.3" font-family="Times,serif" font-size="14.00"> </text>
</g>
<!-- node8&#45;&gt;node11 -->
<g id="edge10" class="edge">
<title>node8:f2&#45;&gt;node11</title>
<path fill="none" stroke="black" d="M748,-72C780.59,-72 811.79,-48.11 830.17,-30.74"/>
<polygon fill="black" stroke="black" points="832.8,-33.06 837.46,-23.55 827.88,-28.08 832.8,-33.06"/>
</g>
</g>
</svg>
